<?xml version="1.0" encoding="utf-8"?>
<!-- Generator: Adobe Illustrator 21.0.0, SVG Export Plug-In . SVG Version: 6.00 Build 0)  -->
<svg version="1.1" id="Layer_1" xmlns="http://www.w3.org/2000/svg" xmlns:xlink="http://www.w3.org/1999/xlink" x="0px" y="0px"
	 viewBox="0 0 400 400" style="enable-background:new 0 0 400 400;" xml:space="preserve">
<path d="M373.2,318.6c0,3,0,6,0,8.9c-2.5,11.1-8.5,19.8-17.4,26.7c-11.4,8.9-24.3,14.8-37.8,19.4c-25.3,8.6-51.5,12.9-78.1,15
	c-5.7,0.4-11.3,1-17,1.4c-11.7,0-23.3,0-35,0c-1.2-0.2-2.4-0.5-3.6-0.6c-15.1-1.6-30.3-2.6-45.4-4.8c-20.9-3-41.3-8.2-60.5-17
	c-18.3-8.4-34.9-18.6-40-40.1c0-3,0-6,0-8.9c1.3-3.7,2.3-7.6,4.1-11.1c6-11.6,16.2-18.8,27.4-24.8c19.2-10.3,40-15.7,61.2-20
	c3.6-0.7,7.1-1.3,11-2.1c-0.6-1.1-0.9-1.6-1.2-2.1c-12.9-20.1-25.9-40.2-38.6-60.4C84.3,169.6,79,138.7,86,105.9
	c4-18.6,12.1-35.3,23.9-50.2c16.3-20.3,36.8-34.5,61.9-41.6c8.6-2.4,17.7-3.4,26.5-5.1c5,0,9.9,0,14.9,0c3.5,0.5,7.1,1,10.6,1.5
	c23.1,3.4,43.7,12.8,61.3,28.1c26.3,22.9,40.8,51.8,43.1,86.7c1.7,25.9-4.5,49.9-18.2,71.9c-12.7,20.3-25.7,40.3-38.6,60.4
	c-0.6,0.9-1,1.8-1.6,3c1.2,0.3,2,0.5,2.8,0.6c21.3,3.7,42.2,8.6,61.9,17.8C352.2,287.4,368.3,297.5,373.2,318.6z M205.7,318.9
	c1-1.6,1.7-2.6,2.4-3.6c27.1-42.5,54.3-85,81.4-127.5c16.1-25.2,20.6-52.2,13.1-81.1c-13.2-51.3-64.1-83.5-116-73.4
	c-26,5.1-46.6,18.7-62.2,40c-23.8,32.2-25.4,78.8-3.9,112.4c27.2,42.5,54.3,85,81.5,127.5C203.2,314.9,204.3,316.7,205.7,318.9z
	 M205.8,366.9c7.9,0,15.9,0.3,23.8-0.1c27.4-1.3,54.5-5.3,80.6-14.2c12.2-4.1,24.1-9.1,33.9-17.9c8.7-7.8,9.1-15.3,0.4-22.9
	c-5.3-4.7-11.5-8.7-17.8-11.9c-18.9-9.5-39.5-13.4-60-17.4c-8.3-1.6-13.4,0.1-16.3,7.9c-0.1,0.3-0.4,0.6-0.6,0.9
	c-11.2,17.5-22.4,35.1-33.5,52.7c-3,4.7-6.9,7.4-12.7,6.4c-3.9-0.7-6.2-3.3-8.2-6.4c-12.6-19.9-25.3-39.7-37.9-59.6
	c-1.4-2.2-2.6-3.4-5.5-2.7c-5.1,1.1-10.3,1.5-15.4,2.5c-19.8,3.6-39.2,8.6-57,18.4c-6.1,3.4-11.8,7.3-16,13
	c-3.3,4.5-3.9,9.3-0.5,13.7c2.7,3.5,5.9,6.8,9.4,9.3c11.7,8.4,25.2,13.1,38.9,17C142.2,364.6,173.8,367.5,205.8,366.9z"/>
<path d="M261.5,132.7c-0.1,30.7-25.3,55.8-56,55.7c-30.7-0.1-55.8-25.4-55.6-56.1c0.2-30.6,25.3-55.5,55.8-55.5
	C236.5,76.8,261.6,102,261.5,132.7z M239.2,132.4c-0.1-18.3-15.3-33.4-33.5-33.3c-18.2,0.1-33.4,15.2-33.4,33.4
	c0,18.3,15.4,33.7,33.7,33.5C224.3,165.8,239.4,150.5,239.2,132.4z"/>
</svg>
