<?xml version="1.0" encoding="utf-8"?>
<!-- Generator: Adobe Illustrator 21.0.0, SVG Export Plug-In . SVG Version: 6.00 Build 0)  -->
<svg version="1.1" id="Layer_1" xmlns="http://www.w3.org/2000/svg" xmlns:xlink="http://www.w3.org/1999/xlink" x="0px" y="0px"
	 viewBox="0 0 179.2 140.1" style="enable-background:new 0 0 179.2 140.1;" xml:space="preserve">
<style type="text/css">
	.st0{clip-path:url(#SVGID_2_);}
</style>
<g>
	<defs>
		<rect id="SVGID_1_" x="10.1" y="14.1" width="159" height="112"/>
	</defs>
	<clipPath id="SVGID_2_">
		<use xlink:href="#SVGID_1_"  style="overflow:visible;"/>
	</clipPath>
	<path class="st0" d="M87.9,113.5c-0.1,0-0.1,0-0.2-0.1c-0.7-0.2-1.1-0.6-1.7-1c-0.7-0.5-1.3-1.1-2-1.7c-1.3-1.2-2.4-2.5-3.7-3.6
		c-2.9-2.7-5.7-5.4-8.5-8.2c-4.5-4.3-9-8.6-13.4-13c-2.3-2.3-4.2-5.1-5.8-7.9c-2-3.6-3.4-7.5-4.2-11.5c-0.6-3.3-0.8-6.6-0.6-10
		c0.2-3.1,0.8-6.2,1.8-9.2c1-3.1,2.4-6,4.1-8.7c1.9-3,4.1-5.6,6.7-8c2.8-2.6,5.9-4.8,9.3-6.6c2.5-1.3,5.1-2.3,7.8-3.1
		c5-1.5,10.1-2,15.2-1.6c4.8,0.4,9.5,1.5,13.9,3.4c3.9,1.7,7.5,3.9,10.7,6.7c2.7,2.4,5.1,5,7.1,8c1.8,2.6,3.3,5.4,4.4,8.4
		c2.3,6.2,2.9,12.6,2,19.2c-0.5,3.7-1.6,7.2-3.2,10.6c-0.3,0.7-0.7,1.4-1,2c0,0.1-0.1,0.1-0.2,0.2c-0.1,0-0.1,0-0.2,0
		c-1.6-2.3-4.1-4.6-6.4-6.1c-0.6-0.4-0.8-0.8-0.5-1.5c1.6-3.6,2.2-7.4,2.1-11.3c-0.1-3.4-0.7-6.8-2-10.1c-1-2.6-2.3-5-4-7.3
		c-1.4-1.9-3-3.7-4.9-5.1c-1.7-1.2-3.3-2.5-5-3.6c-2.2-1.3-4.5-2.2-7-2.9c-3-0.9-6-1.3-9-1.3c-2,0-4,0.3-6,0.5
		c-2.3,0.3-4.5,1-6.6,1.9c-4,1.6-7.5,3.9-10.5,6.9c-3.1,3.1-5.5,6.7-7.1,10.7c-1.4,3.7-2,7.5-2,11.4c0.1,4.2,1.1,8.2,2.9,12
		c1.6,3.5,4,6.5,6.8,9.3c3.3,3.2,6.7,6.4,10,9.6c3.2,3.1,6.4,6.2,9.6,9.2c0.4,0.4,0.8,0.7,1.3,1.1c1.2,0.9,2.3,0.8,3.3-0.2
		c2.6-2.5,5.2-5,7.9-7.5c1.6-1.6,3.3-3.1,4.9-4.7c0.3-0.3,0.6-0.2,0.9,0c2.4,2,4.6,4,7.4,5.3c-1.1,1-2.2,2-3.3,3
		c-3.3,3.2-6.6,6.4-10,9.5c-2.1,2-4.2,4-6.4,5.9C91.6,113.9,89.6,114.1,87.9,113.5"/>
	<path class="st0" d="M112.7,58.8c0,2.6-0.3,4.8-1.1,6.8c-0.5,1.4-1.2,2.8-1.8,4.2c-0.1,0.2,0,0.6,0.1,0.8c2.6,2.3,5.3,4.5,7.9,6.7
		c1.1,1,2.3,2,3.3,3.1c1.8,2,1.2,5.5-0.8,7.2c-2.3,2-5.7,1.9-8-0.1c-3.1-2.7-6.4-5.3-9.4-8.1c-1.1-1-2-1.2-3.4-0.5
		c-3.7,1.8-7.7,2.4-11.8,2.1c-5-0.4-9.5-2.1-13.3-5.3c-3.1-2.6-5.3-5.7-6.7-9.4c-1.2-3.2-1.5-6.6-1.1-10c0.7-5.4,3.1-9.9,7.2-13.6
		c3.7-3.3,8.2-5.2,13.2-5.8c3.5-0.4,7,0,10.3,1.2c6.5,2.3,11.1,6.6,13.7,12.8C112.2,53.6,112.8,56.4,112.7,58.8 M76.2,59
		c0,7.2,5.8,12.6,12.8,12.9c8.1,0.3,14-5.8,13.9-12.9c-0.1-7-5.7-12.5-13.1-12.7C82.1,46.1,76.2,52.1,76.2,59"/>
</g>
</svg>
