<?xml version="1.0" encoding="utf-8"?>
<!-- Generator: Adobe Illustrator 21.0.0, SVG Export Plug-In . SVG Version: 6.00 Build 0)  -->
<svg version="1.1" id="Layer_1" xmlns="http://www.w3.org/2000/svg" xmlns:xlink="http://www.w3.org/1999/xlink" x="0px" y="0px"
	 viewBox="0 0 400 400" style="enable-background:new 0 0 400 400;" xml:space="preserve">
<path d="M311.4,12.8c3,1.3,6.2,2.3,8.8,4.1c6.5,4.4,9.4,10.9,9.4,18.8c0,49.8,0,99.5,0,149.3c0,5.4-2.8,8.8-7.2,8.9
	c-4.5,0.1-7.4-3.4-7.4-9c0-29.4,0-58.9,0-88.3c0-1.4,0-2.9,0-4.6c-95.9,0-191.5,0-287.6,0c0,1.3,0,2.6,0,3.9c0,58.5,0,117,0,175.6
	c0,7.7,2.4,10.1,10,10.1c61.6,0,123.1,0,184.7,0c1.1,0,2.2,0,3.8,0c-4.2-14.7-8.4-29.1-12.6-43.8c-1.6,0-3,0-4.5,0
	c-50.1,0-100.3,0-150.4,0c-8.4,0-10.6-2.2-10.6-10.6c0-34.9,0-69.8,0-104.8c0-7.9,2.3-10.2,10.2-10.2c58.4,0,116.8,0,175.2,0
	c7.9,0,10.2,2.3,10.2,10.2c0,29.4,0,58.9,0,88.3c0,1.3,0,2.7,0,4.2c10.4,3,20.6,5.9,30.8,8.9c24.3,7,48.5,14,72.8,21
	c8.2,2.4,9.7,8.2,3.6,14.3c-5.2,5.2-10.5,10.4-15.9,15.8c1.2,1.2,2,2.2,3,3.1c14.8,14.8,29.6,29.6,44.3,44.4c1.7,1.7,3,3.8,4.4,5.7
	c0,1.2,0,2.4,0,3.7c-1.8,2.1-3.4,4.4-5.3,6.3c-5.2,5.3-10.4,10.5-15.7,15.7c-10.7,10.7-21.5,21.3-32.3,32c-2.4,0-4.9,0-7.3,0
	c-17-16.8-34-33.7-51.2-50.8c-5.3,5.3-10.7,10.9-16.3,16.3c-5.4,5.3-11.4,3.6-13.5-3.6c-2.7-9.3-5.4-18.7-8.1-28
	c-2.3-7.9-4.6-15.8-6.9-23.7c-1.8,0-3.3,0-4.7,0c-62,0-124-0.1-186,0.1c-12.1,0-20.9-4.1-25.8-15.4c0-84.2,0-168.4,0-252.6
	c3.3-8,9.2-13,17.5-15.3C124.5,12.8,217.9,12.8,311.4,12.8z M315,76.9c0-13.4,0-26.4,0-39.4c0-7.7-2.4-10.1-10-10.1c-23,0-46,0-69,0
	c-66.3,0-132.6,0-198.8,0c-7.4,0-9.9,2.4-9.9,9.8c0,12.2,0,24.3,0,36.5c0,1,0.1,2.1,0.2,3.2C123.5,76.9,219,76.9,315,76.9z
	 M62.6,222.8c48.9,0,97.4,0,146.3,0c-0.5-2-1-3.8-1.5-5.5c-0.9-3.1-0.9-6,1.6-8.5c2.5-2.4,5.4-2.4,8.5-1.4c3.7,1.1,7.4,2.1,11.1,3.1
	c0-28.1,0-55.9,0-83.7c-55.5,0-110.6,0-166,0C62.6,158.8,62.6,190.7,62.6,222.8z M369.3,329c-1.1-0.8-2.4-1.3-3.3-2.3
	c-15-14.9-30-29.9-44.9-44.9c-5.1-5.1-5.1-8.6-0.1-13.7c3.9-3.9,7.9-7.8,12.4-12.2c-36.4-10.5-72.1-20.8-108.6-31.3
	c10.5,36.6,20.8,72.2,31.3,108.7c4.4-4.5,8.1-8.4,11.9-12.2c5.4-5.5,8.8-5.5,14.2-0.1c15,15,29.9,29.9,44.9,44.9
	c0.9,0.9,1.9,1.8,2.7,2.6C342.7,355.6,355.5,342.8,369.3,329z"/>
<path d="M81.4,252.2c7.9,0,15.8-0.1,23.7,0c5.9,0.1,9.4,4.5,7.7,9.5c-1.2,3.5-3.8,5-7.3,5c-16.3,0.1-32.5,0.1-48.8,0
	c-4.8,0-7.8-3.1-7.8-7.4c0.1-4.3,3.1-7.1,8-7.1C65.2,252.2,73.3,252.2,81.4,252.2z"/>
<path d="M134.8,252.3c3.9-0.1,7.2,3.2,7.3,7.1c0.1,3.9-3.1,7.3-7,7.4c-3.8,0.1-7.3-3.3-7.3-7.1C127.6,255.8,130.9,252.4,134.8,252.3
	z"/>
<path d="M322.5,208.5c3.8,0.1,7.2,3.6,7.1,7.4c-0.1,3.8-3.6,7.2-7.4,7.1c-3.8-0.1-7.2-3.6-7.1-7.4
	C315.2,211.7,318.7,208.4,322.5,208.5z"/>
<path d="M232.9,59.5c-16.2,0-32.4,0-48.5,0c-1.6,0-3.2-0.1-4.7-0.5c-3.2-1.1-4.9-3.5-4.9-6.9c0.1-3.3,1.8-5.6,4.8-6.6
	c1.5-0.5,3.1-0.6,4.7-0.6c32.4,0,64.7,0,97.1,0c1,0,2,0,2.9,0.1c3.8,0.6,6.5,3.6,6.5,7.2c0,3.6-2.7,6.6-6.5,7.2
	c-1.2,0.2-2.4,0.1-3.6,0.1C264.8,59.5,248.9,59.5,232.9,59.5z"/>
<path d="M98.9,52.1c0.1,3.8-3.2,7.2-7,7.4c-3.8,0.1-7.3-3.1-7.5-6.9c-0.2-3.9,3.2-7.5,7.2-7.6C95.4,44.9,98.8,48.3,98.9,52.1z"/>
<path d="M58.4,59.5c-3.9,0-7.2-3.3-7.2-7.3c0-3.9,3.3-7.3,7.2-7.3c3.9,0,7.1,3.3,7.1,7.3C65.5,56.2,62.3,59.5,58.4,59.5z"/>
<path d="M124.8,44.9c3.9,0,7.1,3.2,7.2,7.1c0.1,4-3,7.2-7,7.4c-4,0.1-7.4-3.3-7.4-7.3C117.7,48.2,120.9,44.9,124.8,44.9z"/>
<path d="M153.1,174.6c0-8,0-16,0-24.1c0-6.6,2.7-9.2,9.3-9.3c8.3-0.2,16.4,0.3,24,4.6c11.9,6.8,18.8,21.6,16.1,35.5
	c-2.7,13.6-14.5,24.9-28.1,26.5c-4.2,0.5-8.5,0.6-12.7,0.6c-5.6,0-8.5-2.9-8.6-8.6C153,191.4,153.1,183,153.1,174.6z M167.8,193.8
	c8.5-0.1,14.9-3.2,18.5-10.6c3.5-7,2.8-13.9-2-20.1c-4.1-5.3-9.7-7.6-16.5-7.1C167.8,168.7,167.8,181.1,167.8,193.8z"/>
<path d="M88.5,200c0.2-0.7,0.5-2,0.9-3.3c5.4-16.2,10.9-32.5,16.3-48.7c1-2.9,2.3-5.4,5.4-6.4c3.7-1.2,7.6,0.6,9,4.7
	c6,17.3,11.8,34.7,17.5,52.1c1.5,4.4-0.5,8-4.4,9.5c-3.5,1.3-6.8-0.3-9.1-4c-0.6-1-2.1-1.9-3.2-1.9c-4.7-0.2-9.5,0-14.2-0.1
	c-2.3-0.1-4,0.2-5.1,2.8c-1.4,3.1-4.9,4.3-8,3.4C90.3,207.1,88.2,204.1,88.5,200z M118.5,187.1c-1.8-5.2-3.4-9.9-5.3-15.6
	c-1.9,5.8-3.5,10.6-5.2,15.6C111.6,187.1,114.7,187.1,118.5,187.1z"/>
</svg>
