<?xml version="1.0" encoding="utf-8"?>
<!-- Generator: Adobe Illustrator 21.0.0, SVG Export Plug-In . SVG Version: 6.00 Build 0)  -->
<svg version="1.1" id="Layer_1" xmlns="http://www.w3.org/2000/svg" xmlns:xlink="http://www.w3.org/1999/xlink" x="0px" y="0px"
	 viewBox="0 0 400 400" style="enable-background:new 0 0 400 400;" xml:space="preserve">
<g id="XMLID_14_">
	<g id="XMLID_139_">
		<path id="XMLID_142_" d="M386.3,88.3c-4.6-5.5-11.4-8.6-18.6-8.6h-17.2c-7.7-13.5-22-21.9-37.7-21.9h-3.6V31.5
			c0-4.2-3.4-7.5-7.5-7.5c-28,0-50.8,22.8-50.8,50.8v23.5c0,16.4-9,31.2-23.6,38.7l-24.6,12.7c-3.7,1.9-5.1,6.4-3.2,10.1
			c1.3,2.6,4,4.1,6.7,4.1c1.2,0,2.3-0.3,3.4-0.8l24.6-12.7c19.6-10.1,31.7-30,31.7-52V74.8c0-17.2,12.1-31.5,28.3-35v25.4
			c0,4.2,3.4,7.5,7.5,7.5h11.1c11.4,0,21.7,6.8,26.1,17.3c1.2,2.8,3.9,4.6,6.9,4.6h21.9c2.7,0,5.3,1.2,7.1,3.3
			c1.8,2.1,2.5,4.8,2,7.5l-2.8,16.1c-1.8,10.2-10.6,17.7-21,17.7h-33.5c-0.1,0-0.2,0-0.2,0c-0.1,0-0.2,0-0.2,0
			c-4.2,0-7.5,3.4-7.5,7.5v36.8c0,26.6-5.1,52.5-15.3,77.1c-0.6,1.5-0.7,3.2-0.3,4.8l18.5,70.7c0.3,1.2,1,2.4,1.8,3.3l6.6,6.9
			c1.2,1.3,0.9,2.6,0.6,3.3c-0.3,0.7-1,1.8-2.8,1.8h-25.1l-32.3-83.7V233c0-4.2-3.4-7.5-7.5-7.5c-4.2,0-7.5,3.4-7.5,7.5v36.2
			c0,0.9,0.2,1.8,0.5,2.7l30.7,79.6h-26.5c-3.6-23.5-24-41.6-48.5-41.6h-8.5l-3.4-19.9c-3.6-21.3-19.6-37.9-40.7-42.4l-14.2-3
			c-4.1-0.9-8.1,1.7-8.9,5.8c-0.9,4.1,1.7,8.1,5.8,8.9l14.2,3c15,3.2,26.4,15,29,30.2l2.9,17.4h-46.3c-4.2,0-7.5,3.4-7.5,7.5
			s3.4,7.5,7.5,7.5h70.1c16.2,0,29.8,11.4,33.2,26.6H133.3c-37.6,0-68.2-30.6-68.2-68.2c0-28.2,15.6-53.7,40.6-66.7l43.8-22.6
			c3.7-1.9,5.1-6.4,3.2-10.1c-1.9-3.7-6.4-5.1-10.1-3.2l-43.8,22.6c-12,6.2-22.2,14.8-30.1,25.1c-0.8-3.9-1.3-8-1.3-12.1
			c0-21,11.4-40.5,29.7-50.8c5-2.8,7.3-8.4,5.9-14c-1.5-5.8-6.8-9.9-12.8-10c0,0-0.1,0-0.1,0c0,0,0,0-0.1,0c0,0,0,0,0,0
			c-44.9,0-82.1,37-83,82.5c-0.6,31.7,16.8,61.3,44.7,76.1c7.8,37.9,41.4,66.5,81.6,66.5h187.5c7.3,0,13.7-4.2,16.6-11
			c2.9-6.8,1.5-14.3-3.5-19.6l-5.3-5.5l-17.4-66.4c10.2-25.7,15.4-52.7,15.4-80.5v-29.2h26.4c17.7,0,32.8-12.7,35.8-30.2l2.8-16.1
			C392.9,101,390.9,93.8,386.3,88.3L386.3,88.3z M22.1,224.3c0.7-34.8,27.2-63.5,60.5-67.3c-18.8,13.7-30.1,35.7-30.1,59.2
			c0,10.1,2,19.9,6,29.1c-5.1,11.1-8.1,23.3-8.3,36C32.3,268.1,21.6,246.9,22.1,224.3z"/>
		<path id="XMLID_143_" d="M320.3,103.7c1.4-1.4,2.2-3.3,2.2-5.3c0-2-0.8-3.9-2.2-5.3c-1.4-1.4-3.3-2.2-5.3-2.2
			c-2,0-3.9,0.8-5.3,2.2c-1.4,1.4-2.2,3.3-2.2,5.3c0,2,0.8,3.9,2.2,5.3c1.4,1.4,3.3,2.2,5.3,2.2C317,105.9,318.9,105,320.3,103.7z"
			/>
		<path id="XMLID_144_" d="M176.1,179.4c2,0,3.9-0.8,5.3-2.2c1.4-1.4,2.2-3.3,2.2-5.3c0-2-0.8-3.9-2.2-5.3c-1.4-1.4-3.3-2.2-5.3-2.2
			c-2,0-3.9,0.8-5.3,2.2c-1.4,1.4-2.2,3.3-2.2,5.3c0,2,0.8,3.9,2.2,5.3C172.2,178.6,174.1,179.4,176.1,179.4z"/>
	</g>
</g>
</svg>
