<?xml version="1.0" encoding="utf-8"?>
<!-- Generator: Adobe Illustrator 21.0.0, SVG Export Plug-In . SVG Version: 6.00 Build 0)  -->
<svg version="1.1" id="Layer_1" xmlns="http://www.w3.org/2000/svg" xmlns:xlink="http://www.w3.org/1999/xlink" x="0px" y="0px"
	 viewBox="0 0 200 200" style="enable-background:new 0 0 200 200;" xml:space="preserve">
<style type="text/css">
	.st0{fill:#FFFFFF;}
</style>
<g>
	<g>
		<path d="M96.2,4c2.5,0,5,0,7.5,0c0.4,0.1,0.8,0.3,1.2,0.3c17.6,2.2,31.6,16.4,33.7,34.1c0.2,2,0.3,4.1,0.5,6.1
			c6.5,0,12.9,0,19.3,0c4.3,0,6.9,2.4,7.3,6.7c0.7,8,1.3,16.1,2,24.1c1.1,13.3,2.2,26.5,3.2,39.8c0.9,11.6,1.9,23.3,2.8,34.9
			c0.7,9.1,1.5,18.2,2.1,27.3c0.4,6.3-2.1,11.6-7.3,15.2c-2.4,1.6-5.4,2.4-8.1,3.5c-40.2,0-80.5,0-120.7,0c-0.1-0.1-0.2-0.2-0.3-0.2
			c-10.8-2.7-15.8-9.3-15-20.4c1.6-21,3.4-42.1,5.1-63.1c1.7-20.4,3.3-40.7,5-61.1c0.3-4.2,3-6.7,7.3-6.7c5.7,0,11.5,0,17.2,0
			c0.7,0,1.3,0,2.2,0c0-0.8,0-1.4,0-2c0.2-15.8,9.8-29.9,24.5-35.6C88.9,5.6,92.6,5,96.2,4z M47.2,58.1c0,0.5-0.1,0.9-0.1,1.2
			c-0.9,11.2-1.8,22.4-2.7,33.6c-1.2,14.7-2.4,29.4-3.6,44.1c-1.1,13.1-2.1,26.3-3.2,39.4c-0.4,4.3,1.2,6.1,5.6,6.1
			c14.8,0,29.6,0,44.4,0c23.2,0,46.4,0,69.6,0c3.7,0,5.6-2,5.3-5.4c-1.6-19.1-3.1-38.2-4.7-57.3c-1.4-17.8-2.8-35.6-4.3-53.4
			c-0.2-2.8-0.5-5.5-0.7-8.3c-4.7,0-9.1,0-13.8,0c0,0.8,0,1.4,0,2.1c0,10.2,0,20.4,0,30.6c0,4.1-2.8,7.1-6.6,7.1
			c-3.9,0-6.8-2.9-6.8-7.1c0-10.1,0-20.2,0-30.4c0-0.7,0-1.5,0-2.3c-17.1,0-34,0-51.1,0c0,0.8,0,1.4,0,2.1c0,10.1,0.1,20.1-0.1,30.2
			c0,1.6-0.6,3.5-1.4,4.9c-1.5,2.4-4.7,3.2-7.3,2.3c-2.8-0.9-4.6-3.4-4.6-6.4c0-10.3,0-20.6,0-30.9c0-0.7,0-1.3,0-2.1
			C56.3,58.1,51.9,58.1,47.2,58.1z M125.6,44.5c0.1-10.5-4-18.6-13-23.7c-9.2-5.2-18.5-4.7-27.2,1.3C77.6,27.4,74.2,35,74.4,44.5
			C91.5,44.5,108.4,44.5,125.6,44.5z"/>
		<path class="st0" d="M-38.6,212c2.7-1.1,5.7-1.9,8.1-3.5c5.2-3.6,7.7-8.8,7.3-15.2c-0.6-9.1-1.4-18.2-2.1-27.3
			c-0.9-11.6-1.9-23.3-2.8-34.9c-1.1-13.3-2.2-26.5-3.2-39.8c-0.7-8-1.3-16.1-2-24.1c-0.3-4.2-3-6.7-7.3-6.7c-6.4,0-12.7,0-19.3,0
			c-0.2-2.1-0.2-4.1-0.5-6.1c-2-17.7-16.1-31.9-33.7-34.1c-0.4-0.1-0.8-0.2-1.2-0.3c24.1,0,48.2,0,72.3,0c0,64,0,128,0,192
			C-28.1,212-33.3,212-38.6,212z"/>
		<path class="st0" d="M-102.7,20.1c-3.6,1-7.3,1.6-10.8,2.9c-14.7,5.8-24.3,19.9-24.5,35.6c0,0.6,0,1.2,0,2c-0.8,0-1.5,0-2.2,0
			c-5.7,0-11.5,0-17.2,0c-4.3,0-6.9,2.4-7.3,6.7c-1.7,20.3-3.3,40.7-5,61.1c-1.7,21-3.5,42.1-5.1,63.1c-0.8,11.1,4.2,17.7,15,20.4
			c0.1,0,0.2,0.1,0.3,0.2c-5.2,0-10.5,0-15.7,0c0-64,0-128,0-192C-151,20.1-126.8,20.1-102.7,20.1z"/>
		<path class="st0" d="M-151.7,74.1c4.7,0,9.1,0,13.8,0c0,0.8,0,1.4,0,2.1c0,10.3,0,20.6,0,30.9c0,3.1,1.8,5.5,4.6,6.4
			c2.7,0.9,5.9,0.1,7.3-2.3c0.9-1.4,1.4-3.2,1.4-4.9c0.1-10.1,0.1-20.1,0.1-30.2c0-0.7,0-1.3,0-2.1c17.1,0,34,0,51.1,0
			c0,0.8,0,1.5,0,2.3c0,10.1,0,20.2,0,30.4c0,4.2,2.9,7.2,6.8,7.1c3.8,0,6.6-3,6.6-7.1c0-10.2,0-20.4,0-30.6c0-0.7,0-1.3,0-2.1
			c4.6,0,9.1,0,13.8,0c0.2,2.8,0.5,5.5,0.7,8.3c1.4,17.8,2.8,35.6,4.3,53.4c1.5,19.1,3.1,38.2,4.7,57.3c0.3,3.4-1.6,5.4-5.3,5.4
			c-23.2,0-46.4,0-69.6,0c-14.8,0-29.6,0-44.4,0c-4.4,0-6-1.8-5.6-6.1c1.1-13.1,2.1-26.3,3.2-39.4c1.2-14.7,2.4-29.4,3.6-44.1
			c0.9-11.2,1.8-22.4,2.7-33.6C-151.8,75-151.8,74.7-151.7,74.1z"/>
		<path class="st0" d="M-73.4,60.5c-17.2,0-34.1,0-51.1,0c-0.3-9.5,3.2-17.1,10.9-22.4c8.7-6,18-6.5,27.2-1.3
			C-77.4,41.9-73.3,50-73.4,60.5z"/>
	</g>
</g>
</svg>
