<?xml version="1.0" encoding="utf-8"?>
<!-- Generator: Adobe Illustrator 21.0.0, SVG Export Plug-In . SVG Version: 6.00 Build 0)  -->
<svg version="1.1" id="Layer_1" xmlns="http://www.w3.org/2000/svg" xmlns:xlink="http://www.w3.org/1999/xlink" x="0px" y="0px"
	 viewBox="0 0 400 400" style="enable-background:new 0 0 400 400;" xml:space="preserve">
<path d="M378.4,221.6c-1.5-2.6-4.9-3.5-7.5-1.9c-2.6,1.5-3.5,4.9-1.9,7.5c4.4,7.5,6.8,16.1,6.8,24.9c0,27.2-22.1,49.2-49.2,49.2
	c-27.2,0-49.2-22.1-49.2-49.2c0-6.9,1.4-13.7,4.2-19.9l14.5,13.8c-0.4,2-0.6,4.1-0.6,6.1c0,17.2,14,31.1,31.1,31.1
	c17.2,0,31.1-14,31.1-31.1s-14-31.1-31.1-31.1c-2.6,0-5.2,0.3-7.6,1l-14.5-13.8c6.8-3.5,14.4-5.3,22.2-5.3c11.7,0,23,4.2,31.9,11.8
	c1,0.9,2.3,1.3,3.5,1.3c1.5,0,3.1-0.7,4.2-1.9c2-2.3,1.7-5.8-0.6-7.7c-10.9-9.3-24.7-14.4-39-14.4c-10.8,0-21.3,2.9-30.5,8.3
	l-6.7-6.4c10-5.7,21.5-8.9,33.8-8.9c3.6,0,7.3,0.3,10.9,0.9c1.6,0.3,3.2-0.2,4.4-1.3l17.3-14.9c2.8-2.4,4.8-5.4,6.1-8.7
	c4.6-11.8,4.8-34.2-4-44.3C333.7,89,297.9,75.5,257,78.4c-10,0.7-15.8,11.8-10.7,20.5l2.4,4h-11.4c-3,0-5.5,2.4-5.5,5.5
	c0,3,2.4,5.5,5.5,5.5H255c2.5,5.6,3.7,11.7,3.5,17.8c-11-9.8-25.1-15.2-40.1-15.2c-19.8,0-38.1,9.5-49.4,25.6h-39.4
	c-3.1,0-6.1-1.1-8.5-3l-40-32.2c-1-0.8-2.2-1.2-3.4-1.2H44.9c-9.1,0-16.5,7.4-16.5,16.5c0,5.3,2.6,10.3,6.9,13.4l11.8,8.5
	c2.5,1.8,5.9,1.2,7.6-1.3c1.8-2.5,1.2-5.9-1.3-7.6l-11.8-8.5c-1.4-1-2.3-2.7-2.3-4.5c0-3,2.5-5.5,5.5-5.5h30.8l38.5,31
	c4.3,3.5,9.8,5.4,15.4,5.4H171l35.4,13.5l19.5,7.5c-1,0.5-14.2,12-35.5,12h-12c-12,0-23.4,6.5-29.6,17.6l-9-6.5c0,0,0,0,0,0
	l-71.5-51.3c-2.5-1.8-5.9-1.2-7.6,1.3c-1.8,2.5-1.2,5.9,1.3,7.6l64.8,46.6l-11.8,7.3c-11.1-10.6-26-16.6-41.4-16.6
	c-33.2,0-60.2,27-60.2,60.2s27,60.2,60.2,60.2s60.2-27,60.2-60.2c0-5.1-0.7-10.1-1.9-15.1l12.9-8v41c0,15.6,12.7,28.4,28.4,28.4
	h26.4v2.9h-35.7c-3,0-5.5,2.4-5.5,5.5s2.4,5.5,5.5,5.5h41.2c3,0,5.5-2.4,5.5-5.5v-8.4h50.2c2,0,3.8-1.1,4.8-2.8
	c1-1.7,0.9-3.9-0.2-5.6c-6.9-10.9-10.6-23.6-10.6-36.6c0-13.5,3.9-26.1,10.7-36.7l7.9,7.5c-4.5,8.6-6.8,18.1-6.8,27.9
	c0,33.2,27,60.2,60.2,60.2s60.2-27,60.2-60.2C386.7,241.3,383.8,230.8,378.4,221.6L378.4,221.6z M346.7,252c0,11.1-9,20.2-20.2,20.2
	c-9.7,0-17.8-6.9-19.7-16.1l8.3,7.9c3.1,2.9,7.2,4.6,11.4,4.6c4.5,0,8.9-1.9,12-5.2c3.1-3.2,4.7-7.4,4.6-11.8
	c-0.1-4.4-1.9-8.5-5.1-11.6l-8.3-7.9C339.3,233.6,346.7,242,346.7,252z M351.4,126.6c4.1,9.1,2.9,24.6-0.1,30.9
	c-7.4-1.3-13-7.7-13-15.4C338.3,134.3,344,127.8,351.4,126.6L351.4,126.6z M218.4,127.4c14.5,0,28.1,6.2,37.5,17.1
	c-5.5,14.2-16.2,19.2-19.3,21.8L191,148.9l-10.4-4C189.9,133.8,203.6,127.4,218.4,127.4L218.4,127.4z M145.1,214.4
	c-0.1,0.5-0.2,1.1-0.2,1.7L96.2,246c0,0,0,0-0.1,0l-16.4,10.1c-2.7,1.6-6.1,0.7-7.7-1.9c-0.8-1.3-1-2.9-0.6-4.4
	c0.4-1.4,1.3-2.6,2.6-3.4l17.2-10.6c0,0,0,0,0,0l25.6-15.7c0,0,0,0,0,0l19.5-12L145.1,214.4z M62.7,259.8c3.1,5.2,8.6,8,14.2,8
	c2.9,0,5.9-0.8,8.6-2.4l5.5-3.4c-3.5,6.1-10,10.1-17.5,10.1c-11.1,0-20.2-9-20.2-20.2c0-11.1,9-20.2,20.2-20.2c1,0,2,0.1,2.9,0.2
	l-8.1,5c-3.7,2.2-6.3,5.7-7.4,9.8C59.7,251.2,60.4,255.9,62.7,259.8L62.7,259.8z M122.7,252c0,27.2-22.1,49.2-49.2,49.2
	c-27.2,0-49.2-22.1-49.2-49.2c0-27.2,22.1-49.2,49.2-49.2c11.6,0,22.9,4.2,31.7,11.6l-16.8,10.3c-4.6-2.5-9.6-3.8-14.9-3.8
	c-17.2,0-31.1,14-31.1,31.1s14,31.1,31.1,31.1c16.6,0,30.2-13.1,31.1-29.4l17.3-10.7C122.4,246,122.7,249,122.7,252L122.7,252z
	 M251.3,287.4H173c-9.6,0-17.4-7.8-17.4-17.4v-50.3c0-11.4,8.4-20.7,19.1-22.5c9.8-1.6,31.6,4.2,56-13.3
	c17.2-12.4,32.9-20.2,37.7-43.4c1.9-9,1.3-18.2-1.7-26.7h6.5c3,0,5.5-2.4,5.5-5.5c0-3-2.4-5.5-5.5-5.5h-11.7l-5.7-9.6
	c-1-1.7,0.1-3.8,2-4c34.1-2.4,64.2,7.6,85.8,28.2c-9.5,4-16.3,13.5-16.3,24.5c0,10.7,6.3,19.9,15.4,24.1l-9.7,8.4
	c-3.3-0.4-6.7-0.6-10-0.6c-43.8,0-79.4,35.5-79.4,79.4C243.6,265.2,246.2,276.8,251.3,287.4z M280,200.1l11.5,11c0,0,0,0,0,0
	l38.8,36.9c1.1,1,1.7,2.4,1.8,3.9c0,1.5-0.5,2.9-1.5,4c-1.1,1.1-2.5,1.8-4.1,1.8c-1.5,0-2.8-0.6-3.9-1.6l-38.8-36.9c0,0,0,0,0,0
	l-11.9-11.3C274.4,205,277.1,202.4,280,200.1z"/>
<path d="M200,256.9h-15.7c-3,0-5.5,2.4-5.5,5.5s2.4,5.5,5.5,5.5H200c3,0,5.5-2.4,5.5-5.5S203,256.9,200,256.9z"/>
</svg>
