<?xml version="1.0" encoding="utf-8"?>
<!-- Generator: Adobe Illustrator 21.0.0, SVG Export Plug-In . SVG Version: 6.00 Build 0)  -->
<svg version="1.1" id="Layer_1" xmlns="http://www.w3.org/2000/svg" xmlns:xlink="http://www.w3.org/1999/xlink" x="0px" y="0px"
	 viewBox="0 0 200 200" style="enable-background:new 0 0 200 200;" xml:space="preserve">
<path d="M76.3,20.5c14.9,0,29.8,0,44.7,0c13.5,3.6,22.2,11.9,23.8,26.4c18.3,0.9,37.6-3.8,48.8,15.4c0,37.1,0,74.2,0,111.5
	c-62,0-124,0-187,0c0-37,0-74.2,0-111.5c8-13.9,20.9-16,35.5-15.4c4.7,0.2,13.1-2.2,13.5-4.5C57.7,30,67,25.5,76.3,20.5z
	 M141.4,107.9c0.1-23-18.2-41.9-41.1-42.2c-23.1-0.3-42.9,19.4-42.6,42.5c0.3,22.8,19.2,41.4,42.1,41.3
	C122.9,149.4,141.3,131.1,141.4,107.9z"/>
<path d="M99.2,129.8c-12.2-0.2-22.1-10.3-22-22.3c0.1-11.9,10.4-22.2,22.3-22.3c12.7-0.1,22.7,10.4,22.3,23.3
	C121.4,121,111.8,130.1,99.2,129.8z"/>
</svg>
