<?xml version="1.0" encoding="utf-8"?>
<!-- Generator: Adobe Illustrator 21.0.0, SVG Export Plug-In . SVG Version: 6.00 Build 0)  -->
<svg version="1.1" id="Layer_1" xmlns="http://www.w3.org/2000/svg" xmlns:xlink="http://www.w3.org/1999/xlink" x="0px" y="0px"
	 viewBox="0 0 200 200" style="enable-background:new 0 0 200 200;" xml:space="preserve">
<path d="M5.5,161.2c0-20.4,0-40.9,0-61.3c1-4.7,2.6-9.1,6-12.6c2.1-2.2,4.5-4.2,6.7-6.4c0.9-0.9,1.7-2,2.1-3.1
	c4.5-11.9,8.9-23.8,13.3-35.7c2.9-7.9,8.8-11.9,17.2-11.9c33.7,0,67.4,0,101.1,0c8.5,0,14.3,4.1,17.3,12.1
	c4.5,12.1,9,24.3,13.6,36.4c0.4,0.9,1,1.8,1.6,2.6c2,2.4,4.3,4.6,6.2,7.1c2.3,2.9,3.1,6.6,4.1,10.1c0,20.9,0,41.8,0,62.8
	c-0.1,0.3-0.2,0.7-0.3,1c-1.3,7.4-6.9,13.1-14.3,13.8c-4.8,0.4-9.6,0.4-14.4,0.1c-6.3-0.4-11.1-3.7-13.7-9.5
	c-1.1-2.5-1.4-5.5-1.7-8.4c-0.3-2.3-0.1-4.6-0.1-6.9c-33.6,0-66.8,0-100.4,0c0,3.3,0.2,6.5,0,9.7c-0.5,7.5-6.7,14.2-14.2,14.9
	c-4.8,0.5-9.6,0.4-14.4,0.2c-5-0.2-9.1-2.6-12.3-6.6C7,167.1,6.1,164.2,5.5,161.2z M99.9,143.2c24.8,0,49.6,0,74.4,0
	c1.3,0,2.6,0,3.9,0c4.7-0.2,8.3-3.9,8.3-8.7c0-10.9,0-21.8,0-32.7c0-2.9-0.5-5.8-2.2-8.2c-1.6-2.3-3.7-4.3-5.4-6.5
	c-0.8-1-1.7-1.2-2.9-1.2c-16.3,0-32.6,0-48.9,0c-33.5,0-67.1,0-100.6,0c-0.8,0-1.9,0.2-2.5,0.7c-1.9,1.6-3.6,3.3-5.4,5
	c-3.5,3.3-4.9,7.4-4.9,12.1c0,10,0,19.9,0,29.9c0,1,0,2,0.3,2.9c1.1,4.3,4.4,6.6,9.6,6.6C48.9,143.2,74.4,143.2,99.9,143.2z
	 M173.7,77.7c-0.2-0.8-0.4-1.4-0.6-1.9c-3.8-10.2-7.6-20.5-11.4-30.7c-1.9-5-4.5-6.8-9.9-6.8c-33.6,0-67.3,0-100.9,0
	c-5.3,0-8,1.8-9.8,6.9c-3.4,9.2-6.9,18.4-10.3,27.6c-0.6,1.6-1.2,3.2-1.8,4.9c27,0,53.8,0,80.6,0c2.8-14.7,14.2-22.7,25.8-23.5
	c5.8-0.4,11.2,1,16.2,4.1c7.2,4.5,11.4,11.1,12.9,19.4C167.5,77.7,170.5,77.7,173.7,77.7z M13.7,149c0,4.1-0.3,8.1,0.1,11.9
	c0.4,4.1,4,7.1,8.1,7.2c3.9,0.1,7.7,0.1,11.6,0c3.8-0.1,7.4-2.7,7.9-6.5c0.5-3.3,0.1-6.8,0.1-10.4c-0.5,0-1.1,0-1.7,0
	c-4.4,0-8.8,0-13.3,0C22.2,151.3,17.8,151.5,13.7,149z M158.3,151.3c0,3.2-0.2,6.1,0,9.1c0.3,4.4,3.8,7.7,8.3,7.9
	c3.8,0.1,7.6,0.1,11.4,0c3.9-0.1,7.5-2.6,7.9-6.4c0.5-4.1,0.1-8.3,0.1-12.7c-3.4,2.1-7.2,2.2-11,2.2
	C169.5,151.2,164,151.3,158.3,151.3z M155.9,77.7c-1.5-9.2-10.4-15.9-20.5-15.5c-8.3,0.4-17.1,8.1-17.5,15.5
	C130.6,77.7,143.3,77.7,155.9,77.7z"/>
<path d="M43.6,102c4.7,0,9.5,0,14.2,0c3.5,0,5,1.4,5,4.9c0,6.5,0,12.9,0,19.4c0,3.2-1.5,4.8-4.7,4.8c-9.6,0-19.2,0-28.8,0
	c-3.3,0-4.8-1.6-4.9-4.9c0-6.4,0-12.8,0-19.2c0-3.4,1.5-4.9,5-5C34.1,102,38.9,102,43.6,102z M54.6,110.2c-7.4,0-14.7,0-22,0
	c0,4.3,0,8.4,0,12.7c7.4,0,14.7,0,22,0C54.6,118.7,54.6,114.6,54.6,110.2z"/>
<path d="M156.3,102c4.7,0,9.5,0,14.2,0c3.5,0,5,1.5,5,5.1c0,6.3,0,12.7,0,19c0,3.4-1.5,5-5,5c-9.5,0-18.9,0-28.4,0
	c-3.6,0-5-1.5-5-5.1c0-6.3,0-12.7,0-19c0-3.5,1.4-4.9,4.9-5C146.8,102,151.6,102,156.3,102z M145.4,122.9c7.4,0,14.7,0,22,0
	c0-4.3,0-8.4,0-12.7c-7.4,0-14.7,0-22,0C145.4,114.5,145.4,118.7,145.4,122.9z"/>
<path d="M100.1,106.5c6.3,0,12.7,0,19,0c3.2,0,5.2,2.5,4.1,5.2c-0.5,1.1-1.7,1.9-2.8,2.6c-0.7,0.4-1.7,0.3-2.5,0.3
	c-11.9,0-23.8,0-35.8,0c-0.5,0-1,0-1.5,0c-2.5-0.3-4.2-2-4.2-4.1c0-2.3,1.8-3.9,4.5-3.9C87.3,106.5,93.7,106.5,100.1,106.5z"/>
<path d="M99.9,127.1c-5.9,0-11.8,0-17.7,0c-0.9,0-1.7-0.1-2.6-0.2c-1.8-0.4-3.1-2-3.1-3.8c0-1.8,1.4-3.6,3.3-3.9
	c0.6-0.1,1.2-0.1,1.8-0.1c12.3,0,24.6,0,36.9,0c1.1,0,2.3,0.3,3.3,0.8c1.4,0.8,1.9,2.2,1.6,3.8c-0.3,1.7-1.2,2.8-2.9,3.2
	c-0.8,0.2-1.7,0.2-2.6,0.2C111.9,127.1,105.9,127.1,99.9,127.1z"/>
</svg>
