<?xml version="1.0" encoding="utf-8"?>
<!-- Generator: Adobe Illustrator 21.0.0, SVG Export Plug-In . SVG Version: 6.00 Build 0)  -->
<svg version="1.1" id="Layer_1" xmlns="http://www.w3.org/2000/svg" xmlns:xlink="http://www.w3.org/1999/xlink" x="0px" y="0px"
	 viewBox="0 0 400 400" style="enable-background:new 0 0 400 400;" xml:space="preserve">
<path d="M153.8,19c4,1.7,8.3,2.9,11.9,5.3c8.1,5.3,12.4,13.2,12.5,22.9c0.2,34.4,0.2,68.7,0,103.1c-0.1,15.4-12.7,27.9-28.1,28
	c-34.2,0.2-68.4,0.2-102.6,0c-12.4,0-22.9-8-26.9-19.8c-0.4-1.2-1-2.4-1.5-3.6c0-37.4,0-74.8,0-112.2c1.8-3.7,3.2-7.7,5.4-11.2
	c4.2-6.7,11-9.9,18.1-12.3C79.6,19,116.7,19,153.8,19z"/>
<path d="M381,153.8c-0.5,1.4-0.9,2.8-1.4,4.2c-3.9,12-14.5,20.1-27.2,20.1c-34.1,0.1-68.1,0.2-102.2,0
	c-15.8-0.1-28.4-12.8-28.5-28.6c-0.2-33.9-0.1-67.8,0-101.7c0-12.9,8-23.5,20.3-27.6c1.1-0.4,2.2-0.9,3.2-1.3c37.1,0,74.2,0,111.3,0
	c4.1,1.8,8.4,3.1,12.1,5.4c7,4.3,10.2,11.4,12.3,19C381,80.2,381,117,381,153.8z"/>
<path d="M19,245.3c0.6-1.5,1.2-3,1.8-4.5c4.1-11.1,14.4-18.9,26.2-18.9c34.4-0.2,68.7-0.2,103.1,0c15.4,0.1,28,12.6,28.1,28
	c0.2,34.4,0.2,68.7,0,103.1c-0.1,12.6-8.8,23.4-20.9,27c-1.1,0.3-2.3,0.7-3.4,1.1c-36.8,0-73.6,0-110.4,0
	c-7.8-2.1-14.9-5.6-19.3-12.7c-2.1-3.4-3.4-7.2-5.1-10.8C19,320.1,19,282.7,19,245.3z"/>
<path d="M293.2,381c-8.7-2.6-17.9-4.3-26.1-8.1c-32.2-14.9-49.9-49.3-44.3-84.6c5.4-34.4,33.8-61.7,68.7-65.9
	c43.5-5.3,82.2,24.3,88.7,67.8c0.2,1,0.5,2,0.8,3c0,5.4,0,10.9,0,16.3c-0.3,0.8-0.6,1.6-0.8,2.5c-5.6,33.2-24.4,55.1-56.3,65.6
	c-4.7,1.5-9.6,2.3-14.4,3.4C304.1,381,298.6,381,293.2,381z"/>
</svg>
