<?xml version="1.0" encoding="utf-8"?>
<!-- Generator: Adobe Illustrator 21.0.0, SVG Export Plug-In . SVG Version: 6.00 Build 0)  -->
<svg version="1.1" id="Layer_1" xmlns="http://www.w3.org/2000/svg" xmlns:xlink="http://www.w3.org/1999/xlink" x="0px" y="0px"
	 viewBox="0 0 400 400" style="enable-background:new 0 0 400 400;" xml:space="preserve">
<path d="M323,373.2c-82,0-164,0-246,0c-0.1-0.2-0.2-0.5-0.4-0.6c-6.1-3.1-8.8-7.7-7.6-13c1.4-5.8,5.9-8.9,13-8.9
	c18.2,0,36.5,0,54.7,0c1.3,0,2.6,0,3.9,0c0-18.8,0-37,0-55.5c-1.7,0-3.1,0-4.6,0c-34.7,0-69.4,0-104.2,0c-11.7,0-19.7-6-23.1-17
	c-0.2-0.6-0.5-1.1-0.7-1.7c0-77,0-154,0-231c2.6-9.9,8.8-16.2,18.7-18.7c115.5,0,231,0,346.5,0c9.9,2.6,16.1,8.9,18.7,18.7
	c0,77,0,154,0,231c-4.4,15.3-15.1,19-27.5,18.9c-33.6-0.4-67.2-0.1-100.8-0.1c-1.4,0-2.9,0-4.2,0c0,18.8,0,37,0,55.5
	c1.6,0,2.9,0,4.2,0c18.5,0,37,0,55.5,0c6.1,0,10.5,3.4,11.8,8.9c1.2,5.1-1.5,10.1-6.8,12.8C323.7,372.6,323.4,373,323,373.2z
	 M30.8,49.4c0,74.6,0,148.8,0,223c113,0,225.8,0,338.5,0c0-74.5,0-148.7,0-223C256.4,49.4,143.7,49.4,30.8,49.4z M163.5,295.4
	c0,18.6,0,36.9,0,55c24.5,0,48.8,0,73,0c0-18.5,0-36.7,0-55C212.2,295.4,188,295.4,163.5,295.4z"/>
</svg>
