<?xml version="1.0" encoding="utf-8"?>
<!-- Generator: Adobe Illustrator 21.0.0, SVG Export Plug-In . SVG Version: 6.00 Build 0)  -->
<svg version="1.1" id="Layer_1" xmlns="http://www.w3.org/2000/svg" xmlns:xlink="http://www.w3.org/1999/xlink" x="0px" y="0px"
	 viewBox="0 0 400 400" style="enable-background:new 0 0 400 400;" xml:space="preserve">
<path d="M346.8,191c-24.5,0-37.6,17.8-49.8,44.5c-16.2,35.6-32.9,56-45.7,56c-2.4,0-9.5,0-15.8-13.9c-2-4.4-6.7-6.8-11.4-5.8
	c-23,5.1-39.9,15.5-50.2,31.1c-8.5,13-10.2,26.2-10.4,32.9c-0.1,2.8,0.9,5.4,2.9,7.4c1.9,2,4.5,3.1,7.3,3.1H250
	c1.1,8.5,2,16.9,2.7,24.9c-21.7,15.7-46.1,16.2-63,13.8c-19.4-2.8-39.1-10.3-58-17.5c-7.5-2.9-15.3-5.9-23.1-8.5
	c-23.2-8-41.5-11.5-58.3-10.9c9-72.7,30.3-148.8,44.9-175.4h26c-2,10.4-4.2,25.9-6.4,44.7c-0.4,3.1,1.9,6,5,6.3c0.2,0,0.4,0,0.7,0
	c2.8,0,5.3-2.1,5.6-5c2.4-20,4.7-36.1,6.7-46.1h36c2,10,4.4,26.1,6.7,46.1c0.3,2.9,2.8,5,5.6,5c0.2,0,0.4,0,0.7,0
	c3.1-0.4,5.4-3.2,5-6.3c-2.2-18.8-4.4-34.3-6.4-44.7h24.8c9.1,16.7,20.8,52.7,30.3,93.7c0.6,2.6,2.9,4.4,5.5,4.4
	c0.4,0,0.9,0,1.3-0.1c3.1-0.7,5-3.8,4.3-6.8c-9.9-42.8-22.4-80.6-32.1-97.8c1.6-7.4,3.4-15.5,5.1-23.3c4.5-20.1,9.1-41,10.4-52.7
	c1.8-17,0.6-59.3,0.2-71.8C230,13,225.9,9,220.7,9h-13.4c-5.2,0-9.5,4.2-9.5,9.5v13.7c0,26.9-21.5,48.8-48,48.9h-0.2
	c-12.9,0-24.9-5-34-14.1c-9.1-9.1-14.1-21.2-14.1-34V18.5c0-5.2-4.2-9.5-9.5-9.5H78.8c-5.1,0-9.3,4-9.5,9.1
	c-0.2,7.2-0.8,25.9-0.8,43.1c0,3.1,2.5,5.7,5.7,5.7c3.1,0,5.7-2.5,5.7-5.7c0-15.7,0.5-32.7,0.7-40.9h9.6V33
	c0,15.9,6.2,30.8,17.4,42.1C119,86.3,134,92.5,150,92.5c32.7-0.1,59.3-27.2,59.3-60.3V20.4h9.6c0.5,14.2,1.5,52.9-0.2,68.4
	c-1.2,11.1-5.7,31.6-10.2,51.4c-1.6,7-3.2,14.3-4.6,21h-30.3c-0.2,0-0.3,0-0.5,0h-45c-0.2,0-0.4,0-0.5,0h-32
	c-1.4-6.4-2.9-13.3-4.4-20C86.7,120.9,82,100,80.8,88.8c-0.1-1.4-0.3-3-0.4-5.1c-0.2-3.1-2.9-5.5-6-5.3c-3.1,0.2-5.5,2.9-5.3,6
	c0.1,2.2,0.3,4.1,0.4,5.6c1.3,11.9,6,33.1,10.6,53.7c1.8,7.9,3.6,16,5.1,23.4c-7.7,14-16.9,40.3-25.5,72.7
	c-9.8,37.1-17.5,77.5-21.6,113.7c-0.2,1.7,0.4,3.4,1.6,4.6c1.2,1.2,2.9,1.8,4.6,1.7c17-1.7,35.7,1.3,60.5,9.9
	c7.6,2.6,15.3,5.6,22.7,8.4c19.5,7.5,39.8,15.2,60.5,18.2c5.7,0.8,11.2,1.2,16.6,1.2c21.7,0,41.3-6.5,57.4-19.1
	c1.5-1.2,2.3-3,2.2-4.9c-0.7-8.8-1.6-17.9-2.8-27.1h3.5c5.1,0,9.5-3.2,11.1-8c4.8-14.6,15.2-31.1,28.3-45.1
	c10-10.6,19.1-17.1,24.7-19.2c0.9,4,1.3,11.8,1.3,23.3V336c0,5.6,4.6,10.2,10.2,10.2h9.4c5.6,0,10.2-4.6,10.2-10.2v-38.7
	c0-8.5,3.5-15.6,7.1-23.3c4.2-8.7,8.5-17.8,8.5-29.6C376,213.5,363.7,191,346.8,191z M357.2,269.2c-4.1,8.4-8.2,17.1-8.2,28.2v37.5
	h-7.1v-37.5c0-18.2-0.8-28.9-5.3-33.6c-1.1-1.1-2.6-1.8-4.1-1.8c-13.2,0-31.1,18-36.3,23.5c-14.3,15.2-25.5,33.1-30.9,49.3
	c0,0.1-0.2,0.2-0.3,0.2h-9.8c-0.1,0-0.2,0-0.2,0H175c0.7-13.2,7.4-42,50.6-51.9c6.1,13.1,14.8,19.8,25.7,19.8
	c18.2,0,37.1-21.1,56-62.6c12.7-27.9,23-37.8,39.4-37.8c7.5,0,17.8,14.6,17.8,42.1C364.6,253.7,361,261.2,357.2,269.2z"/>
<path d="M380.5,100.7c0-0.1-0.1-0.2-0.1-0.3l-16.9-39.8c-1.7-3.9-5.5-6.4-9.7-6.4h-90.7c-4.3,0-8.1,2.5-9.7,6.4l-2.1,5
	c-1.2,2.9,0.1,6.2,3,7.5c2.9,1.2,6.2-0.1,7.5-3l1.9-4.5h21.7l-4.5,31.5h-30.6l2.3-5.4c1.2-2.9-0.1-6.2-3-7.5c-2.9-1.2-6.2,0.1-7.5,3
	l-5.6,13.1c0,0.1-0.1,0.2-0.1,0.3c-1.5,3.7-0.8,8,1.9,11l62.3,69.9c2,2.2,4.8,3.5,7.8,3.5h0.1h0.1c3,0,5.9-1.3,7.8-3.5l62.3-69.9
	C381.3,108.7,382,104.4,380.5,100.7z M280.6,109.6l14.9,49.3l-44.9-50.4h29.7C280.4,108.9,280.5,109.2,280.6,109.6z M323.7,131.6
	c-3-0.9-6.2,0.8-7.1,3.8l-8.2,27l-16.3-53.9h32.6l-1.3,4.4c-0.9,3,0.8,6.2,3.8,7.1c3,0.9,6.2-0.8,7.1-3.8l2-6.6
	c0.1-0.4,0.2-0.7,0.3-1.1h29.7l-44.9,50.4l6.1-20.3C328.4,135.6,326.7,132.5,323.7,131.6z M366.6,97.1H336l-4.5-31.5h21.7
	L366.6,97.1z M296.9,65.6H320l4.5,31.5h-32.2L296.9,65.6z"/>
</svg>
