<?xml version="1.0" encoding="utf-8"?>
<!-- Generator: Adobe Illustrator 21.0.0, SVG Export Plug-In . SVG Version: 6.00 Build 0)  -->
<svg version="1.1" id="Layer_1" xmlns="http://www.w3.org/2000/svg" xmlns:xlink="http://www.w3.org/1999/xlink" x="0px" y="0px"
	 viewBox="0 0 400 400" style="enable-background:new 0 0 400 400;" xml:space="preserve">
<path d="M8,45.5c2.4-4.3,6-5.7,10.9-5.5c6.7,0.3,13.5,0,20.2,0c22,0.1,37.5,13,41.6,34.5c1.7,9.1,3.6,18.1,5.4,27.2
	c0.1,0.7,0.5,1.4,0.8,2.3c2.7,0,5.3,0,7.9,0c21.4,0,42.7,0,64.1,0c5.7,0,9.1,3.3,9,8.2c-0.1,4-2.9,7.1-6.9,7.6
	c-1.4,0.2-2.7,0.1-4.1,0.1c-20.7,0-41.5,0-62.2,0c-1.4,0-2.7,0-4.6,0c1.3,6.8,2.5,13.2,3.8,19.6c7.1,35.6,14.3,71.2,21.4,106.9
	c1,5,1.9,10,3.1,15c0.2,1,1.7,1.8,2.8,2.5c0.6,0.3,1.5,0.1,2.2,0.1c61.9,0,123.7,0,185.6,0.1c3.6,0,4.9-0.9,5.5-4.5
	c3.7-19.6,7.8-39.2,11.6-58.8c0.8-4.2,2.4-7.7,7.1-8.6c5.4-1,10.2,3.8,9.1,9.4c-4.7,23.9-9.5,47.7-14.3,71.6
	c-0.9,4.4-3.7,6.6-8.2,6.9c-1.2,0.1-2.5,0-3.7,0c-65.4,0-130.7,0-196.1,0c-13,0-26,0-39,0c-5.4,0-9,3.4-8.9,8
	c0.1,4.7,3.7,7.8,9.1,7.9c1,0,2,0,3,0c88.1,0,176.2,0,264.3,0c1.4,0,2.8-0.1,4.1,0.1c4.4,0.4,7.3,3.7,7.3,8c0,4.3-3,7.4-7.5,7.8
	c-1.1,0.1-2.2,0.1-3.4,0.1c-88.9,0-177.7,0-266.6-0.1c-3.4,0-7.1-0.3-10.3-1.4c-10.9-3.5-17.7-14.9-15.9-25.9
	c1.9-12,11.5-20.3,24-20.6c7.1-0.2,14.2,0,21.8,0c-1.2-6.4-2.4-12.3-3.5-18.3c-6.9-34.5-13.8-69-20.7-103.6
	c-4.4-21.9-8.6-43.8-13-65.6C62.1,63.4,52.9,56,39.5,56c-7,0-14-0.2-21,0.1C13.6,56.3,10,54.6,8,50C8,48.5,8,47,8,45.5z"/>
<path d="M392,72.5c-2.4,7.7-4.1,15.7-7.2,23.1c-8.6,20.1-22.2,36.9-36.9,52.9c-16.2,17.6-33.9,33.5-52.8,48.2
	c-5.8,4.6-8.3,4.6-14.2-0.1c-27.6-21.7-53.2-45.4-73.9-74c-9.7-13.3-17.7-27.5-21.4-43.7C178.1,46,199.9,14,233.2,8.7
	c0.7-0.1,1.4-0.5,2.1-0.7c4.5,0,9,0,13.5,0c0.6,0.2,1.1,0.6,1.7,0.6c14.4,2.1,26.3,8.8,35.9,19.8c0.5,0.6,1.2,1.1,1.8,1.7
	c10.6-11.6,19.3-17.2,31.4-20.3c2.6-0.7,5.3-1.2,8-1.8c4.2,0,8.5,0,12.7,0c0.7,0.2,1.4,0.5,2.1,0.7c24.7,4.5,40.5,18.9,47.7,42.8
	c0.8,2.7,1.3,5.5,1.9,8.3C392,64,392,68.3,392,72.5z M287.3,182c1-0.5,1.4-0.6,1.7-0.9c24.2-19.5,46.7-40.7,65.5-65.6
	C363,104.1,370.6,92,374.2,78c4.6-17.8,0.2-33.2-14.2-44.7C345.8,22,329.9,21,313.7,29.3c-8.4,4.3-14.3,11.2-18.2,19.7
	c-1.5,3.3-4,5.1-7.6,5c-3.5-0.1-5.8-1.9-7.3-5c-0.3-0.7-0.6-1.4-1-2c-9.4-18.4-30.7-27.3-50.2-20.9c-19.8,6.4-31.9,25.9-28.8,46.5
	c1.4,9.4,5.2,17.9,9.9,26.1c12,20.9,28.1,38.5,45.3,55C266.1,163.4,276.9,172.7,287.3,182z"/>
<path d="M131,392c-2.9-1-5.9-1.9-8.7-3.2c-14.1-6.6-21.3-22.4-17.1-37.3c4.2-15.3,18.2-24.7,34.5-23.3c14.1,1.2,26.7,13.7,28.1,27.9
	c1.5,16.2-7.9,30.3-23.1,34.6c-1.3,0.4-2.6,0.8-3.8,1.2C137.5,392,134.3,392,131,392z M152,359.9c0-8.8-7.2-16-16-15.9
	c-8.8,0-16,7.3-16,16c0,8.7,7.4,16,16.1,16C144.8,376,152,368.7,152,359.9z"/>
<path d="M275,392c-2.9-1-5.9-1.9-8.7-3.2c-14.1-6.6-21.3-22.4-17.1-37.3c4.2-15.3,18.2-24.7,34.5-23.3c14.1,1.2,26.7,13.7,28.1,27.9
	c1.5,16.2-7.9,30.3-23.1,34.6c-1.3,0.4-2.6,0.8-3.8,1.2C281.5,392,278.2,392,275,392z M280.2,344c-8.8-0.1-16.1,7-16.2,15.8
	c-0.1,8.7,7.1,16.1,15.8,16.2c8.7,0.1,16.1-7.1,16.2-15.9C296.1,351.4,288.9,344.1,280.2,344z"/>
</svg>
