<?xml version="1.0" encoding="utf-8"?>
<!-- Generator: Adobe Illustrator 21.0.0, SVG Export Plug-In . SVG Version: 6.00 Build 0)  -->
<svg version="1.1" id="Layer_1" xmlns="http://www.w3.org/2000/svg" xmlns:xlink="http://www.w3.org/1999/xlink" x="0px" y="0px"
	 viewBox="0 0 400 400" style="enable-background:new 0 0 400 400;" xml:space="preserve">
<g>
	<path d="M26.9,12c117.2,0,234.4,0,351.6,0c2.3,1.2,4.8,2.1,6.8,3.6c7.9,5.9,10,18.3,0.8,28.1c-45.4,48.8-90.4,98-135.7,146.9
		c-5.6,6.1-8.4,12.9-8.3,21.2c0.2,33.1-0.1,66.3,0.2,99.4c0.1,8.4-2.3,15.5-7.9,21.8c-15.7,17.8-31.2,35.9-47,53.8
		c-2.7,3.1-6.3,5.4-9.4,8.1c-1.7,0-3.5,0-5.2,0c-7.4-2.5-9.6-8-9.6-15.4c0.1-55.7,0-111.4,0.1-167.1c0-8.9-2.8-16-8.8-22.5
		c-36.9-39.7-73.5-79.6-110.3-119.5c-8.6-9.3-17.2-18.7-25.8-28c-5.5-5.9-6.8-12.6-3.8-20C16.8,17,21.5,14.1,26.9,12z"/>
</g>
</svg>
