<?xml version="1.0" encoding="utf-8"?>
<!-- Generator: Adobe Illustrator 21.0.0, SVG Export Plug-In . SVG Version: 6.00 Build 0)  -->
<svg version="1.1" id="Layer_1" xmlns="http://www.w3.org/2000/svg" xmlns:xlink="http://www.w3.org/1999/xlink" x="0px" y="0px"
	 viewBox="0 0 400 400" style="enable-background:new 0 0 400 400;" xml:space="preserve">
<g>
	<g>
		<path d="M370.9,167.2h-7.5v-28c0-16.6-13.5-30-30-30H224.5c-10.1,0-19,5-24.5,12.7c-5.4-7.7-14.4-12.7-24.5-12.7h-68.4
			c-3.1,0-5.6,2.5-5.6,5.6c0,3.1,2.5,5.6,5.6,5.6h68.4c10.4,0,18.9,8.5,18.9,18.9v55.6c-0.1-0.1-0.2-0.2-0.4-0.3
			c-6.6-6.1-15.5-9.7-24.5-9.7H77c-0.5-7.5-5.6-14-12.6-16.5c-2-0.7-4.1-1-6.2-1H47.7v-28c0-10.4,8.5-18.9,18.9-18.9h18.2
			c3.1,0,5.6-2.5,5.6-5.6c0-3.1-2.5-5.6-5.6-5.6H66.7c-16.6,0-30,13.5-30,30v28h-7.5c-10.4,0-18.8,8.4-18.8,18.8v58
			c0,21.6,17.6,39.2,39.2,39.2h2.8c0,0-6.1,16.4-6.1,16.4c-3.8,10.3,4.1,21.7,15.1,21.7h8.9c5,0,9.8-2.4,12.8-6.4l24-31.7h186.1
			l24,31.7c3,4,7.8,6.4,12.8,6.4c0,0,8.9,0,8.9,0c11,0,18.9-11.3,15.1-21.7l-6.1-16.4h2.8c21.6,0,39.2-17.6,39.2-39.2v-58
			C389.7,175.6,381.3,167.2,370.9,167.2z M205.6,139.2c0-10.4,8.5-18.9,18.9-18.9h108.9c10.4,0,18.9,8.5,18.9,18.9v28
			c0,0-10.5,0-10.5,0c-7.4,0-14.5,4.7-17.3,11.5c-0.8,1.9-1.3,4-1.4,6c0,0-92.6,0-92.6,0c-9.2,0-18.3,3.7-24.9,10L205.6,139.2
			L205.6,139.2z M77,195.9h92.5c13.7,0,24.9,11.2,24.9,24.9v7.9H77V195.9z M74.1,308.2c-0.9,1.2-2.4,2-4,2c0,0-8.9,0-8.9,0
			c-3.4,0-5.8-3.5-4.6-6.7l7.5-20.3H93L74.1,308.2z M338.8,310.1h-8.9c-1.5,0-3-0.7-4-2l-18.9-25h28.9c0,0,7.5,20.2,7.5,20.3
			C344.6,306.6,342.2,310.1,338.8,310.1z M350.6,272.1H49.4c-15.5,0-28-12.6-28-28v-58c0-4.2,3.4-7.7,7.7-7.7h29.1
			c4.2,0,7.7,3.4,7.7,7.7v48.2c0,3.1,2.5,5.6,5.6,5.6h204.2c3.1,0,5.6-2.5,5.6-5.6s-2.5-5.6-5.6-5.6h-70v-7.9
			c0-13.7,11.2-24.9,24.9-24.9H323v32.8h-25.1c-3.1,0-5.6,2.5-5.6,5.6c0,3.1,2.5,5.6,5.6,5.6h30.7c3.1,0,5.6-2.5,5.6-5.6V186
			c0-4.2,3.4-7.7,7.7-7.7h29.1c4.2,0,7.7,3.4,7.7,7.7v58h0C378.6,259.5,366,272.1,350.6,272.1z"/>
	</g>
</g>
</svg>
