<?xml version="1.0" encoding="utf-8"?>
<!-- Generator: Adobe Illustrator 21.0.0, SVG Export Plug-In . SVG Version: 6.00 Build 0)  -->
<svg version="1.1" id="Layer_1" xmlns="http://www.w3.org/2000/svg" xmlns:xlink="http://www.w3.org/1999/xlink" x="0px" y="0px"
	 viewBox="0 0 400 400" style="enable-background:new 0 0 400 400;" xml:space="preserve">
<g>
	<g>
		<path d="M395,329.7c0-0.1,0-0.1,0-0.2c0-0.2-0.1-0.4-0.1-0.7c0,0,0,0,0-0.1c0-0.2-0.1-0.4-0.2-0.6c0-0.1,0-0.1-0.1-0.2
			c-0.1-0.2-0.1-0.3-0.2-0.5c0,0,0-0.1,0-0.1l-30.6-60.3V68.9c0-6.1-5-11.1-11.1-11.1H47.3c-6.1,0-11.1,5-11.1,11.1v198.3L5.6,327.4
			c0,0,0,0.1,0,0.1c-0.1,0.2-0.2,0.3-0.2,0.5c0,0.1,0,0.1-0.1,0.2c-0.1,0.2-0.1,0.4-0.2,0.6c0,0,0,0,0,0.1c0,0.2-0.1,0.4-0.1,0.7
			c0,0.1,0,0.1,0,0.2c0,0.1,0,0.2,0,0.4v14.5c0,7.2,5.9,13.1,13.1,13.1h363.7c7.2,0,13.1-5.9,13.1-13.1V330
			C395,329.9,395,329.8,395,329.7z M47.6,69.3h304.8v193.5H47.6V69.3z M45.4,274.3h309.2l25.4,50.1H254.5l-6.3-22.8
			c-1.3-4.6-5.5-7.9-10.4-7.9h-75.6c-4.8,0-9.1,3.2-10.4,7.9l-6.3,22.8H20L45.4,274.3z M242.6,324.3h-85.2l5.3-19.3h74.6
			L242.6,324.3z M383.6,344.5c0,0.9-0.8,1.7-1.7,1.7H18.2c-0.9,0-1.7-0.8-1.7-1.7v-8.8h367.1V344.5z"/>
	</g>
</g>
<g>
	<g>
		<path d="M334.5,175.6c-3.2,0-5.7,2.6-5.7,5.7v57.9H71.2v-57.9c0-3.2-2.6-5.7-5.7-5.7s-5.7,2.6-5.7,5.7v60.4c0,4.9,4,9,9,9h262.5
			c4.9,0,9-4,9-9v-60.4C340.2,178.1,337.7,175.6,334.5,175.6z"/>
	</g>
</g>
<g>
	<g>
		<path d="M331.3,81.5H68.8c-4.9,0-9,4-9,9v60.4c0,3.2,2.6,5.7,5.7,5.7s5.7-2.6,5.7-5.7V92.9h257.6v57.9c0,3.2,2.6,5.7,5.7,5.7
			s5.7-2.6,5.7-5.7V90.4C340.2,85.5,336.2,81.5,331.3,81.5z"/>
	</g>
</g>
</svg>
