<svg id="Layer_1" data-name="Layer 1" xmlns="http://www.w3.org/2000/svg" viewBox="0 0 376.03 385.16"><defs><style>.cls-1{font-size:45.56px;font-family:Poppins-Bold, Poppins;font-weight:700;}</style></defs><title>logo</title><path d="M321.12,140.2c-.31,3.6-.63,7.05-1.1,10.66a117.81,117.81,0,0,1-12.22,39.64c-.16.16-.31.47-.47.63,0,.16-.16.16-.78.63-.16-.31-.31-.78-.47-1.1a68.57,68.57,0,0,0-17.71-17.24c-2.35-1.57-2.66-2.66-1.72-5.33,11.6-32,7.05-61.89-13.48-88.69-15-19.74-35.57-31.81-60.48-35.26-47.95-6.42-88.53,22.72-101.38,63.46-10,33.38-3.29,63.77,19.9,89.78,9.87,11.13,21,21.15,31.5,31.65,9.56,9.4,19,19,28.52,28.36a45.61,45.61,0,0,0,4.23,3.76c3.76,3,6.58,2.66,10-.63,5.33-5.17,10.66-10.5,15.83-15.67,6.58-6.42,13.16-13,19.59-19.59,2.51-2.51,2.51-2.51,5.33-.16,4.7,3.76,9.24,7.68,14.1,11.28,1.88,1.41,3.92,2.51,6,3.76-.16.16-.31.47-.63.78-18,17.71-36,35.26-53.9,53a17.81,17.81,0,0,1-9.87,5.48h-2.82c-5.64-.63-9.56-4.23-13.48-7.83-1.72-1.57-3.29-3.29-4.86-4.86-2.35-2.35-4.54-4.7-6.89-7.05-20.84-20.84-42-41.52-62.68-62.68C93.29,198.64,83.42,176.24,80,151c-.47-3.45-.78-7.05-1.1-10.66v-9.71a9.17,9.17,0,0,0,.31-2c.47-3.92.63-8,1.25-11.91a118.22,118.22,0,0,1,28.83-60.8C128.71,34,153.15,21,182.14,16.25c3.76-.63,7.36-.94,11.13-1.41H206.9a5.57,5.57,0,0,0,1.57.31c3.6.47,7.36.63,11,1.25,30.56,5.33,55.78,19.74,75.21,43.87a116.15,116.15,0,0,1,25.54,60.33c.47,3.29.63,6.42.94,9.71Z" transform="translate(-11.98 -14.84)"/><path d="M267.07,134.4a60.2,60.2,0,0,1-5.8,26.17c-.94,1.88-1.57,3.92-2.51,6a3,3,0,0,0,.94,3.92c8.62,7.68,17.39,15.36,26,23,1.57,1.41,3,3,4.39,4.39,7.21,6.74,4.54,19.12-2.51,24.13a17.22,17.22,0,0,1-21.31-1.1c-8.77-7.68-17.55-15.51-26.32-23.35a10.14,10.14,0,0,0-1.41-1.25c-3.45-3-5.48-3.29-9.56-1.25-32.75,16.45-79.76,2.19-92.92-40.58-11.75-38.08,12.38-77.56,51.55-84.93a66.94,66.94,0,0,1,78.5,54.06C266.6,127,266.75,130.8,267.07,134.4ZM238.7,135c0-21.62-16.92-38.55-38.7-38.55a38.29,38.29,0,0,0-38.7,38.23c-.16,21.62,17.08,38.7,38.86,38.7A38.19,38.19,0,0,0,238.7,135Z" transform="translate(-11.98 -14.84)"/><text class="cls-1" transform="translate(0 357.55) scale(1.04 1)">sarıİlanlar.com</text></svg>