<?xml version="1.0" encoding="utf-8"?>
<!-- Generator: Adobe Illustrator 21.0.0, SVG Export Plug-In . SVG Version: 6.00 Build 0)  -->
<svg version="1.1" id="Layer_1" xmlns="http://www.w3.org/2000/svg" xmlns:xlink="http://www.w3.org/1999/xlink" x="0px" y="0px"
	 viewBox="0 0 200 200" style="enable-background:new 0 0 200 200;" xml:space="preserve">
<style type="text/css">
	.st0{fill:#FFFFFF;}
</style>
<path class="st0" d="M-109.5,169.3c0,12.3,0,24.5,0,36.8c-64.1,0-128.3,0-192.4,0c0-64.1,0-128.3,0-192.4c64.1,0,128.3,0,192.4,0
	c0,12.1,0,24.3,0,36.4c-0.1-0.3-0.3-0.5-0.4-0.8c-1.6-4.4-4.8-6.8-9.5-6.8c-41.4,0-82.7,0-124.1,0c-1.3,0-2.6,0.2-3.8,0.7
	c-4.3,1.6-6.8,6.1-6,10.5c0.9,4.9,4.8,8,10.1,8c41.2,0,82.4,0,123.5,0c0.9,0,1.8,0,2.6-0.2c4.2-0.9,6.4-3.7,7.7-7.6c0,18,0,36,0,54
	c-1.9-5.9-6.1-7.8-12.1-7.8c-56.2,0.1-112.4,0.1-168.5,0.1c-1.1,0-2.1,0-3.2,0.2c-4.4,0.6-7.8,4.2-8.2,8.5c-0.4,4.4,2.2,8.6,6.4,9.9
	c1.5,0.5,3.2,0.6,4.8,0.6c56.3,0,112.6,0,168.9,0c0.8,0,1.6,0,2.4,0c2.7-0.1,5.1-1,6.8-3.1c1.1-1.4,1.8-3.1,2.6-4.6c0,18,0,36,0,54
	c-2.6-6.3-4.9-7.9-11.7-7.9c-25,0-50.1,0-75.1,0c-3.1,0-6.2-0.1-9.4,0c-5.8,0.1-10.1,5.3-9.2,11c0.7,4.9,4.6,8.1,9.9,8.1
	c20.2,0,40.3,0,60.5,0c8.4,0,16.9,0,25.3,0c3.4,0,6.2-1.4,8.1-4.3C-110.5,171.6-110,170.4-109.5,169.3z"/>
<path d="M196,111.5c-0.9,1.6-1.5,3.3-2.6,4.6c-1.7,2.1-4.1,3-6.8,3.1c-0.8,0-1.6,0-2.4,0c-56.3,0-112.6,0-168.9,0
	c-1.6,0-3.3-0.1-4.8-0.6c-4.2-1.3-6.8-5.5-6.4-9.9c0.4-4.4,3.8-7.9,8.2-8.5c1-0.1,2.1-0.2,3.2-0.2c56.2,0,112.4,0,168.5-0.1
	c6,0,10.2,1.9,12.1,7.8C196,109,196,110.3,196,111.5z"/>
<path d="M196,53.8c-1.2,3.9-3.5,6.7-7.7,7.6c-0.8,0.2-1.7,0.2-2.6,0.2c-41.2,0-82.4,0-123.5,0c-5.2,0-9.2-3.1-10.1-8
	c-0.8-4.4,1.7-8.9,6-10.5c1.2-0.4,2.6-0.7,3.8-0.7c41.4,0,82.7,0,124.1,0c4.7,0,7.9,2.4,9.5,6.8c0.1,0.3,0.3,0.5,0.4,0.8
	C196,51.3,196,52.5,196,53.8z"/>
<path d="M196,169.3c-0.5,1.1-1,2.3-1.6,3.3c-1.9,2.8-4.6,4.3-8.1,4.3c-8.4,0-16.9,0-25.3,0c-20.2,0-40.3,0-60.5,0
	c-5.3,0-9.2-3.3-9.9-8.1c-0.9-5.8,3.4-10.9,9.2-11c3.1-0.1,6.2,0,9.4,0c25,0,50.1,0,75.1,0c6.8,0,9.2,1.5,11.7,7.9
	C196,166.8,196,168,196,169.3z"/>
</svg>
