<?xml version="1.0" encoding="utf-8"?>
<!-- Generator: Adobe Illustrator 21.0.0, SVG Export Plug-In . SVG Version: 6.00 Build 0)  -->
<svg version="1.1" id="Layer_1" xmlns="http://www.w3.org/2000/svg" xmlns:xlink="http://www.w3.org/1999/xlink" x="0px" y="0px"
	 viewBox="0 0 400 400" style="enable-background:new 0 0 400 400;" xml:space="preserve">
<g>
	<g>
		<path d="M286.9,14H113.1C95.9,14,82,27.9,82,45.1v310.5c0,17.1,13.9,31,31.1,31.1h173.9c17.1,0,31-13.9,31.1-31.1V45.1
			C318,27.9,304.1,14,286.9,14z M305.6,355.6c0,10.3-8.3,18.6-18.6,18.6H113.1c-10.3,0-18.6-8.3-18.6-18.6v-31.1h211.2V355.6z
			 M305.6,312.1H94.4V63.7h211.2V312.1z M305.6,51.3H94.4v-6.2c0-10.3,8.3-18.6,18.6-18.6h173.9c10.3,0,18.6,8.3,18.6,18.6V51.3z"/>
	</g>
</g>
<g>
	<g>
		<path d="M200,330.7c-10.3,0-18.6,8.3-18.6,18.6S189.7,368,200,368s18.6-8.3,18.6-18.6S210.3,330.7,200,330.7z M200,355.6
			c-3.4,0-6.2-2.8-6.2-6.2c0-3.4,2.8-6.2,6.2-6.2s6.2,2.8,6.2,6.2C206.2,352.8,203.4,355.6,200,355.6z"/>
	</g>
</g>
<g>
	<g>
		<path d="M206.2,32.6h-12.4c-3.4,0-6.2,2.8-6.2,6.2s2.8,6.2,6.2,6.2h12.4c3.4,0,6.2-2.8,6.2-6.2S209.6,32.6,206.2,32.6z"/>
	</g>
</g>
</svg>
