<?xml version="1.0" encoding="utf-8"?>
<!-- Generator: Adobe Illustrator 21.0.0, SVG Export Plug-In . SVG Version: 6.00 Build 0)  -->
<svg version="1.1" id="Layer_1" xmlns="http://www.w3.org/2000/svg" xmlns:xlink="http://www.w3.org/1999/xlink" x="0px" y="0px"
	 viewBox="0 0 400 400" style="enable-background:new 0 0 400 400;" xml:space="preserve">
<g>
	<path d="M44.7,131.9c0-4.9,0-9.8,0-14.6c2.7-5.2,7.1-6.8,12.7-6.7c14.5,0.2,29,0,43.5,0.1c3.3,0,5.6-1,7.9-3.3
		c16.9-17,33.5-34.3,50.9-50.8c31.8-30,69.6-40.7,112.7-32.5c14.6,2.8,28.1,8.6,41.7,16.9c4-4.3,7.7-8.8,12-12.8
		c7.1-6.7,15.7-8.9,25.1-6.9c10.8,2.3,18.2,9,21.5,19.5c3.2,10.5,0.9,20.2-6.7,28.3c-3.9,4.2-8.1,8-12.1,11.8
		c0.6,1.2,0.9,1.7,1.2,2.2c29.6,49.8,22.5,111.2-17.8,152.7c-16.7,17.2-33.9,33.9-50.7,51c-1.4,1.4-2.4,3.9-2.5,5.9
		c-0.2,15.5-0.1,31-0.1,46.5c0,7.1-3.6,10.6-10.6,10.6c-42.3-0.4-80.9-12.7-116.1-36.1c-19.4-12.9-35.2-29.8-51.4-46.3
		C75,235.9,55.6,198.6,48,155.2C46.7,147.5,45.8,139.7,44.7,131.9z"/>
	<path d="M113.1,300.7c27.6,27.5,59.7,47,96.8,58c-11.2,16.6-41.7,28.4-69,14.7C111.1,358.4,102.9,324.5,113.1,300.7z"/>
</g>
</svg>
