<?xml version="1.0" encoding="utf-8"?>
<!-- Generator: Adobe Illustrator 21.0.0, SVG Export Plug-In . SVG Version: 6.00 Build 0)  -->
<svg version="1.1" id="Layer_1" xmlns="http://www.w3.org/2000/svg" xmlns:xlink="http://www.w3.org/1999/xlink" x="0px" y="0px"
	 viewBox="0 0 400 400" style="enable-background:new 0 0 400 400;" xml:space="preserve">
<g>
	<g>
		<path d="M80,96.9c6.7,3.6,8.7,9.3,8.6,16.7c-0.2,47-0.1,94-0.1,141c0,1.2,0,2.5,0,4.3c1.1-0.9,1.9-1.4,2.5-2
			c6.8-6.8,13.6-13.6,20.4-20.4c5.9-5.8,13.7-6.2,19-0.9c5.4,5.3,5.1,13.3-0.8,19.3c-14.6,14.7-29.3,29.4-44,44
			c-1.7,1.6-3.7,2.8-5.6,4.3c-3,0-6,0-9,0c-2.8-2.4-5.8-4.7-8.4-7.3c-12.4-12.3-24.7-24.6-37-36.9c-3.8-3.8-7.7-7.5-9.3-12.8
			c0-1,0-2,0-3c0.3-0.4,0.6-0.8,0.8-1.2c4.9-11.6,14.6-13.4,23.6-4.6c6.6,6.5,13.1,13.1,19.6,19.6c0.6,0.6,1.4,1.1,2.5,1.9
			c0-1.9,0-3.2,0-4.4c0-47.3,0.1-94.7-0.1-142c0-7.3,2.4-12.5,9.1-15.6C74.5,96.9,77.3,96.9,80,96.9z"/>
		<path d="M383.7,120.9c-84.6,0-169.1,0-254.2,0c0-8.1,0-16.1,0-24c84.7,0,169.5,0,254.2,0C383.7,104.9,383.7,112.9,383.7,120.9z"/>
		<path d="M383.7,241.6c-48.3,0-96.6,0-145.2,0c0-8,0-15.8,0-24c48.4,0,96.8,0,145.2,0C383.7,225.6,383.7,233.6,383.7,241.6z"/>
		<path d="M189.7,180.6c0-7.9,0-15.6,0-23.5c64.4,0,128.7,0,193.1,0c0,7.9,0,15.6,0,23.5C318.5,180.6,254.3,180.6,189.7,180.6z"/>
		<path d="M382.8,278.6c0,8,0,15.7,0,23.6c-32.1,0-64,0-96.3,0c0-7.7,0-15.5,0-23.6C318.5,278.6,350.5,278.6,382.8,278.6z"/>
	</g>
</g>
</svg>
