<?xml version="1.0" encoding="utf-8"?>
<!-- Generator: Adobe Illustrator 21.0.0, SVG Export Plug-In . SVG Version: 6.00 Build 0)  -->
<svg version="1.1" id="Layer_1" xmlns="http://www.w3.org/2000/svg" xmlns:xlink="http://www.w3.org/1999/xlink" x="0px" y="0px"
	 viewBox="0 0 400 400" style="enable-background:new 0 0 400 400;" xml:space="preserve">
<path d="M381.8,214.2c-0.9,7.1-1.8,14.3-2.8,21.4c-0.4,2.6-0.9,5.1-1.4,7.7c-1.5,6.4-7.2,10.3-13.5,9.2c-6.2-1-10.2-6.8-9.3-13.4
	c1.2-8.3,3-16.5,3.7-24.9c2.8-35.3-5.8-67.9-25.3-97.4c-26.4-40-63.8-63.6-111.1-70.7c-80.4-12-158.2,41.3-176.8,120.7
	c-20.6,87.7,34.6,174.4,123,192.6c36.7,7.6,72,2.3,105.4-14.8c6.7-3.4,13.4-1.8,16.5,4.1c3.2,6.1,0.7,12.5-6.2,16.1
	c-22,11.4-45.3,18.2-70.1,20c-0.8,0.1-1.6,0.4-2.4,0.6c-7.3,0-14.7,0-22,0c-8.3-1.2-16.6-2-24.9-3.6C91.4,367.6,33.6,308.4,21,234.8
	c-1.1-6.6-1.9-13.3-2.8-20c0-7.6,0-15.1,0-22.7c0.2-0.9,0.5-1.8,0.6-2.7c1.7-10.4,2.7-20.9,5.2-31.1c17.1-68.8,74.8-122,144.7-133.8
	c6.6-1.1,13.3-1.9,19.9-2.8c7.6,0,15.1,0,22.7,0c0.9,0.2,1.8,0.5,2.7,0.6c32.7,2.5,62.6,13,89.4,31.8
	c41.3,29.1,66.5,68.7,75.5,118.4c1.2,6.7,1.9,13.5,2.8,20.3C381.8,200,381.8,207.1,381.8,214.2z"/>
<path d="M322.1,385.3c-0.8-0.5-1.6-0.9-2.4-1.4c-4.7-2.6-7-7.6-5.8-12.6c1.3-5.2,5.8-8.8,11.1-8.8c5.2,0,9.8,3.6,11.1,8.8
	c1.2,4.9-1.2,10-5.8,12.6c-0.8,0.4-1.6,0.9-2.4,1.3C325.9,385.3,324,385.3,322.1,385.3z"/>
<path d="M222.7,158c0,18.3-0.1,36.7,0.1,55c0,5.5-2,9.4-6.6,12.5c-21.7,14.4-43.3,28.8-64.9,43.2c-6.9,4.6-15.7,2.8-18.5-3.8
	c-2.3-5.3-0.4-11.1,5-14.7c16.6-11.1,33.3-22.1,49.9-33.2c4.1-2.7,9.7-4.8,11.8-8.7c2.1-3.7,0.6-9.4,0.6-14.3c0-30.6,0-61.3,0-91.9
	c0-8.9,7.8-14.5,15.6-11.4c4.4,1.8,7.1,5.9,7.1,11.3C222.7,120.7,222.7,139.4,222.7,158z"/>
<path d="M313.6,283.1c0-14.7,0-29.3,0-44c0-7.6,4.5-12.7,11.3-12.8c6.7-0.1,11.5,5.1,11.5,12.6c0,29.6,0,59.2,0,88.7
	c0,5-1.9,8.7-6.3,11c-4,2.1-8,1.6-11.7-1c-3.3-2.4-4.7-5.7-4.7-9.8C313.6,312.9,313.6,298,313.6,283.1z"/>
</svg>
