<?xml version="1.0" encoding="utf-8"?>
<!-- Generator: Adobe Illustrator 21.0.0, SVG Export Plug-In . SVG Version: 6.00 Build 0)  -->
<svg version="1.1" id="Layer_1" xmlns="http://www.w3.org/2000/svg" xmlns:xlink="http://www.w3.org/1999/xlink" x="0px" y="0px"
	 viewBox="0 0 200 200" style="enable-background:new 0 0 200 200;" xml:space="preserve">
<path d="M54.5,58.3c0,6.3-5.1,11.4-11.4,11.4s-11.4-5.1-11.4-11.4s5.1-11.4,11.4-11.4S54.5,52,54.5,58.3z"/>
<path d="M172,73.5v45.9c0,16.5-13.4,29.9-29.9,29.9H65.9v7.6c0,10.5,8.5,19,19,19H172c10.4,0,19-8.5,19-19V92.4
	C191,82,182.5,73.5,172,73.5z"/>
<path d="M142.1,24.2H27.6C17.3,24.2,9,32.5,9,42.7v76.6c0,1.3,0.1,2.6,0.4,3.8c-0.4,1.9,0,3.9,1.4,5.3c0.3,0.3,0.7,0.5,1.1,0.7
	c3.3,5.2,9.1,8.7,15.6,8.7h114.5c10.2,0,18.6-8.3,18.6-18.6V42.7C160.7,32.5,152.3,24.2,142.1,24.2z M27.6,39.3h114.5
	c1.9,0,3.4,1.5,3.4,3.4v46.7l-24-27.9c-2.5-3-6.1-4.4-10.2-4.7c-3.9,0-7.6,1.8-10.1,4.8L73.1,95.4l-9.2-9.2
	c-5.2-5.2-13.6-5.2-18.8,0l-20.9,20.9V42.7C24.2,40.9,25.7,39.3,27.6,39.3z"/>
</svg>
