<?xml version="1.0" encoding="utf-8"?>
<!-- Generator: Adobe Illustrator 21.0.0, SVG Export Plug-In . SVG Version: 6.00 Build 0)  -->
<svg version="1.1" id="Layer_1" xmlns="http://www.w3.org/2000/svg" xmlns:xlink="http://www.w3.org/1999/xlink" x="0px" y="0px"
	 viewBox="0 0 200 200" style="enable-background:new 0 0 200 200;" xml:space="preserve">
<g>
	<g>
		<g>
			<path d="M193.4,97.8c0,1.5,0,2.9,0,4.4c-0.1,0.2-0.2,0.3-0.2,0.5c-2.4,9.4-8.1,13.7-17.7,13.7c-18.9,0-37.8,0-56.7,0
				c-0.7,0-1.4,0-2.3,0c0,0.9,0,1.6,0,2.3c0,19.3,0,38.6,0,57.8c0,7.4-4.2,13.5-10.9,15.9c-1.1,0.4-2.2,0.6-3.3,1
				c-1.5,0-2.9,0-4.4,0c-0.1-0.1-0.2-0.2-0.3-0.2c-9.6-2.5-13.9-8.1-13.9-17.9c0-18.9,0-37.7,0-56.6c0-0.7,0-1.4,0-2.3
				c-0.9,0-1.6,0-2.3,0c-19.3,0-38.6,0-57.8,0c-8.3,0-14.6-5.1-16.5-13.2c-0.1-0.3-0.2-0.7-0.3-1c0-1.5,0-2.9,0-4.4
				c0.1-0.2,0.2-0.4,0.3-0.7c2.3-9,8.1-13.6,17.5-13.6c19,0,38,0,57,0c0.7,0,1.4,0,2.2,0c0-1,0-1.7,0-2.4c0-19.3,0-38.5,0-57.8
				c0-6.6,2.9-11.6,8.6-14.8c1.7-1,3.7-1.4,5.6-2c1.5,0,2.9,0,4.4,0c0.1,0.1,0.2,0.2,0.3,0.2c9.5,2.4,13.9,8.1,13.9,17.9
				c0,18.9,0,37.7,0,56.6c0,0.7,0,1.4,0,2.3c0.9,0,1.6,0,2.3,0c19.3,0,38.6,0,57.8,0c6,0,10.8,2.4,14,7.4
				C191.9,93,192.5,95.5,193.4,97.8z"/>
		</g>
	</g>
</g>
</svg>
