<?xml version="1.0" encoding="utf-8"?>
<!-- Generator: Adobe Illustrator 21.0.0, SVG Export Plug-In . SVG Version: 6.00 Build 0)  -->
<svg version="1.1" id="Layer_1" xmlns="http://www.w3.org/2000/svg" xmlns:xlink="http://www.w3.org/1999/xlink" x="0px" y="0px"
	 viewBox="0 0 200 200" style="enable-background:new 0 0 200 200;" xml:space="preserve">
<style type="text/css">
	.st0{fill:#FFC30B;}
	.st1{fill:#FFFFFF;}
</style>
<circle class="st0" cx="100" cy="100" r="98.8"/>
<g>
	<g>
		<g>
			<path class="st1" d="M178,98.2c0,1.2,0,2.4,0,3.7c-0.1,0.1-0.2,0.3-0.2,0.4c-2,7.8-6.8,11.5-14.8,11.5c-15.8,0-31.6,0-47.4,0
				c-0.6,0-1.2,0-1.9,0c0,0.7,0,1.3,0,1.9c0,16.1,0,32.2,0,48.3c0,6.2-3.5,11.3-9.1,13.3c-0.9,0.3-1.8,0.5-2.8,0.8
				c-1.2,0-2.4,0-3.7,0c-0.1-0.1-0.2-0.1-0.3-0.2c-8-2.1-11.6-6.7-11.6-15c0-15.7,0-31.5,0-47.2c0-0.6,0-1.2,0-1.9
				c-0.7,0-1.3,0-1.9,0c-16.1,0-32.2,0-48.3,0c-6.9,0-12.2-4.3-13.8-11c-0.1-0.3-0.2-0.6-0.3-0.9c0-1.2,0-2.4,0-3.7
				c0.1-0.2,0.2-0.4,0.2-0.6c1.9-7.5,6.8-11.3,14.6-11.3c15.9,0,31.8,0,47.7,0c0.6,0,1.2,0,1.9,0c0-0.8,0-1.4,0-2
				c0-16.1,0-32.2,0-48.3c0-5.5,2.4-9.7,7.2-12.4c1.4-0.8,3.1-1.1,4.7-1.7c1.2,0,2.4,0,3.7,0c0.1,0.1,0.2,0.1,0.3,0.1
				c8,2,11.6,6.7,11.6,15c0,15.7,0,31.5,0,47.2c0,0.6,0,1.2,0,1.9c0.7,0,1.3,0,1.9,0c16.1,0,32.2,0,48.3,0c5,0,9,2,11.7,6.2
				C176.8,94.2,177.3,96.3,178,98.2z"/>
		</g>
	</g>
</g>
</svg>
