<?xml version="1.0" encoding="utf-8"?>
<!-- Generator: Adobe Illustrator 21.0.0, SVG Export Plug-In . SVG Version: 6.00 Build 0)  -->
<svg version="1.1" id="Layer_1" xmlns="http://www.w3.org/2000/svg" xmlns:xlink="http://www.w3.org/1999/xlink" x="0px" y="0px"
	 viewBox="0 0 200 200" style="enable-background:new 0 0 200 200;" xml:space="preserve">
<g>
	<path d="M177.3,89.1c-0.2,2.3-0.4,4.5-0.7,6.8c-1,8.9-3.8,17.3-7.8,25.3c-0.1,0.1-0.2,0.3-0.3,0.4c0,0.1-0.1,0.1-0.5,0.4
		c-0.1-0.2-0.2-0.5-0.3-0.7c-3.1-4.4-6.9-8-11.3-11c-1.5-1-1.7-1.7-1.1-3.4c7.4-20.4,4.5-39.5-8.6-56.6
		c-9.6-12.6-22.7-20.3-38.6-22.5c-30.6-4.1-56.5,14.5-64.7,40.5C37,89.6,41.3,109,56.1,125.6c6.3,7.1,13.4,13.5,20.1,20.2
		c6.1,6,12.1,12.1,18.2,18.1c0.9,0.9,1.8,1.7,2.7,2.4c2.4,1.9,4.2,1.7,6.4-0.4c3.4-3.3,6.8-6.7,10.1-10c4.2-4.1,8.4-8.3,12.5-12.5
		c1.6-1.6,1.6-1.6,3.4-0.1c3,2.4,5.9,4.9,9,7.2c1.2,0.9,2.5,1.6,3.8,2.4c-0.1,0.1-0.2,0.3-0.4,0.5c-11.5,11.3-23,22.5-34.4,33.8
		c-1.8,1.8-3.8,3.1-6.3,3.5c-0.6,0-1.2,0-1.8,0c-3.6-0.4-6.1-2.7-8.6-5c-1.1-1-2.1-2.1-3.1-3.1c-1.5-1.5-2.9-3-4.4-4.5
		c-13.3-13.3-26.8-26.5-40-40c-11.4-11.7-17.7-26-19.9-42.1c-0.3-2.2-0.5-4.5-0.7-6.8c0-2.1,0-4.1,0-6.2c0.1-0.4,0.2-0.9,0.2-1.3
		c0.3-2.5,0.4-5.1,0.8-7.6c2.4-14.7,8.5-27.7,18.4-38.8c12.4-14,28-22.3,46.5-25.3c2.4-0.4,4.7-0.6,7.1-0.9c2.9,0,5.8,0,8.7,0
		c0.3,0.1,0.7,0.2,1,0.2c2.3,0.3,4.7,0.4,7,0.8c19.5,3.4,35.6,12.6,48,28c9.1,11.3,14.6,24.1,16.3,38.5c0.3,2.1,0.4,4.1,0.6,6.2
		C177.3,84.9,177.3,87,177.3,89.1z"/>
	<path d="M142.8,85.4c0,5.9-1.2,11.4-3.7,16.7c-0.6,1.2-1,2.5-1.6,3.8c-0.5,1-0.2,1.8,0.6,2.5c5.5,4.9,11.1,9.8,16.6,14.7
		c1,0.9,1.9,1.9,2.8,2.8c4.6,4.3,2.9,12.2-1.6,15.4c-4.2,2.9-9.6,2.7-13.6-0.7c-5.6-4.9-11.2-9.9-16.8-14.9
		c-0.3-0.3-0.6-0.6-0.9-0.8c-2.2-1.9-3.5-2.1-6.1-0.8c-20.9,10.5-50.9,1.4-59.3-25.9c-7.5-24.3,7.9-49.5,32.9-54.2
		c23.5-4.4,45.9,11,50.1,34.5C142.5,80.7,142.6,83.1,142.8,85.4z M124.7,85.8c0-13.8-10.8-24.6-24.7-24.6
		c-13.7,0-24.7,10.8-24.7,24.4c-0.1,13.8,10.9,24.7,24.8,24.7C113.8,110.3,124.7,99.5,124.7,85.8z"/>
</g>
</svg>
