<?xml version="1.0" encoding="utf-8"?>
<!-- Generator: Adobe Illustrator 21.0.0, SVG Export Plug-In . SVG Version: 6.00 Build 0)  -->
<svg version="1.1" id="Layer_1" xmlns="http://www.w3.org/2000/svg" xmlns:xlink="http://www.w3.org/1999/xlink" x="0px" y="0px"
	 viewBox="0 0 400 400" style="enable-background:new 0 0 400 400;" xml:space="preserve">
<path d="M285.5,35.7c2.7,0,5.5,0,8.2,0c15.8,5.6,20.2,12,20.2,28.9c0,81.2,0,162.4,0,243.6c0,5.2,0.1,10.5,0,15.7
	c-0.2,8.5-3.9,15.2-11,19.8c-2.8,1.8-6.1,2.6-9.2,3.9c-2.5,0-5,0-7.5,0c-13.3-3.7-20.5-12.1-20.3-26.3c0-1.2-0.8-2.6-1.7-3.4
	c-6.1-5.7-12.1-11.6-18.7-16.7c-30.5-24-64.9-40.4-101.9-51.7c-8.6-2.7-17.5-4.5-26.5-6.7c-0.6,2-0.9,3.2-1.2,4.4
	c-5,19.7-9.9,39.4-14.9,59.1c-1.6,6.3-4.3,8.4-10.9,8.4c-8.7,0-17.5,0-26.2,0c-7.6,0-10.9-3.3-10.9-11c0-19,0-38,0-57
	c0-1.3,0-2.6,0-4.1c-5.6,0-10.6,0.2-15.6,0c-9.7-0.4-17.3-4.7-22.3-12.9c-1.8-2.9-2.7-6.3-4.1-9.5c0-19,0-38,0-57
	c0.2-0.2,0.4-0.3,0.5-0.6c4.6-15.2,13.5-21.9,29.3-21.9c22.5,0,45,0.1,67.5-0.1c4.2,0,8.5-0.4,12.6-1.2
	c23.2-4.2,45.2-12.3,66.5-22.2c27.8-12.9,53.7-28.7,75.6-50.5c2.1-2.1,3-4.1,3-7.1c0.1-9.7,4.7-16.9,13.3-21.4
	C281.3,37.2,283.4,36.5,285.5,35.7z M119.2,224.9c54.5,11.2,103.4,33.7,146.6,69.1c0-68.4,0-136.5,0-204.8
	c-43.3,35.5-92.2,58-146.6,69.1C119.2,180.7,119.2,202.9,119.2,224.9z M284,191.7c0,43,0,86,0,129c0,1.2-0.1,2.5,0.1,3.7
	c0.6,3.2,2.6,5.2,5.9,5.2c3.3,0,5.3-2,5.9-5.2c0.2-1.1,0.1-2.2,0.1-3.4c0-86.2,0-172.5,0-258.7c0-1.1,0.1-2.3-0.1-3.4
	c-0.6-3.2-2.6-5.2-5.9-5.2c-3.3,0-5.3,1.9-5.9,5.2c-0.2,1.2-0.1,2.5-0.1,3.7C284,105.7,284,148.7,284,191.7z M71.2,224.4
	c10.1,0,19.9,0,29.5,0c0-22,0-43.8,0-65.5c-10,0-19.7,0-29.5,0C71.2,180.8,71.2,202.4,71.2,224.4z M52.9,158.7c-4.3,0-8.1,0-12,0
	c-1,0-2,0-3,0c-5.1,0.3-8.7,3.8-8.8,8.9c-0.1,16.1-0.1,32.2,0,48.3c0,4.3,3,8.1,7.1,8.4c5.5,0.5,11.1,0.1,16.7,0.1
	C52.9,202.4,52.9,180.8,52.9,158.7z M71.3,242.8c0,18.1,0,35.9,0,53.6c4.7,0,9.2,0,13.8,0c4.5-17.9,8.9-35.7,13.4-53.6
	C89.2,242.8,80.4,242.8,71.3,242.8z"/>
<path d="M389,193.9c-2.2,5.1-6.1,7-11.6,6.8c-8.7-0.3-17.4,0-26.2-0.1c-6.2,0-10.2-3.6-10.2-9c0-5.3,4.1-9,10.2-9
	c8.7,0,17.4,0.2,26.2-0.1c5.5-0.2,9.4,1.8,11.6,6.8C389,190.9,389,192.4,389,193.9z"/>
<path d="M371.1,113.6c0,3.7-1.7,6.5-5,8.1c-9.1,4.4-18.1,8.9-27.3,13.1c-4.6,2.1-9.7,0.1-11.7-4.3c-2.1-4.4-0.6-9.5,4-11.8
	c9.1-4.6,18.3-9.1,27.6-13.2C364.7,102.8,371,107.2,371.1,113.6z"/>
<path d="M336.1,247.8c0.5,0.1,1.9,0.3,3.1,0.9c9,4.3,18,8.5,26.9,12.9c3.9,1.9,5.6,5.5,4.9,9.6c-0.7,3.8-3,6.4-6.7,7.1
	c-1.9,0.4-4.3,0.1-6.1-0.7c-8.9-4.1-17.8-8.4-26.6-12.7c-4.2-2.1-6-6-5-10.2C327.6,250.5,331,247.8,336.1,247.8z"/>
</svg>
