<?xml version="1.0" encoding="utf-8"?>
<!-- Generator: Adobe Illustrator 21.0.0, SVG Export Plug-In . SVG Version: 6.00 Build 0)  -->
<svg version="1.1" id="Layer_1" xmlns="http://www.w3.org/2000/svg" xmlns:xlink="http://www.w3.org/1999/xlink" x="0px" y="0px"
	 viewBox="0 0 400 400" style="enable-background:new 0 0 400 400;" xml:space="preserve">
<path d="M286.2,372.4c-78,0-156,0-234,0c-3.5-1-5.8-3.2-6.7-6.7c0-96.2,0-192.5,0-288.7c2.4-5.8,3.7-6.6,10.1-6.6
	c9.1,0,18.2,0,27.3,0c1.3,0,2.6,0,4.1,0c0-11,0-21.3,0-31.6c0-6.1,1-7.5,6.6-9.7c55.2,0,110.5,0,165.7,0c2.2,1.6,4.6,3,6.5,4.8
	c16.9,16.8,33.7,33.7,50.7,50.5c2.6,2.6,3.8,5.3,3.7,8.9c-0.2,11-0.1,22-0.1,32.9c0.6,0.3,0.9,0.4,1.3,0.5c0.7,0.2,1.5,0.3,2.2,0.5
	c32.4,8,53.3,28,62.4,60c1.7,5.8,2.1,12,3,18c0,1.5,0,3,0,4.5c-0.2,1.3-0.5,2.7-0.6,4c-2.4,26.3-14.5,46.9-36,61.9
	c-9.6,6.7-20.5,10.8-31.9,12.9c-0.2,0.5-0.3,0.7-0.3,0.9c0,10.6-0.1,21.2-0.1,31.9c0,7.7-2,9.7-9.9,9.7c-5.7,0-11.4,0-17.5,0
	c0,1.8,0,3.2,0,4.5c0,9,0,18,0,27C292.7,368.8,291.8,370.1,286.2,372.4z M101,43.3c0,91.4,0,182.5,0,273.7c68.5,0,136.8,0,205.2,0
	c0-9.1,0-18,0-26.9c-47.4-1.4-79.1-37.5-81.8-76.3c-1.3-18.4,2.8-35.6,13-50.9c16.3-24.5,39.7-36.7,68.8-37.8c0-9.3,0-18.1,0-27.2
	c-1.6,0-3,0-4.3,0c-13.7,0-27.5,0-41.2,0c-6.8,0-9-2.2-9-8.9c0-13.9,0-27.7,0-41.6c0-1.3,0-2.7,0-4.1
	C201.1,43.3,151.2,43.3,101,43.3z M86.9,84.5c-9.4,0-18.2,0-27,0c0,91.4,0,182.5,0,273.6c73.1,0,145.9,0,218.7,0c0-9.1,0-17.9,0-27
	c-1.8,0-3.4,0-5,0c-58.7,0-117.5,0-176.2,0c-8.7,0-10.5-1.9-10.5-10.6c0-77,0-153.9,0-230.9C86.9,88,86.9,86.4,86.9,84.5z
	 M306.4,276.1c37.3,0.2,68.3-30.5,68.4-68.1c0.2-37.8-29.9-68.6-67.4-69c-38.6-0.4-69.4,30-69.6,68.7
	C237.7,245.3,268.4,275.9,306.4,276.1z M265.5,53.9c0,9.9,0,19.9,0,30c10.2,0,20.2,0,30.2,0C285.5,73.8,275.5,63.9,265.5,53.9z"/>
<path d="M176.4,70.4c12.7,0,25.5,0,38.2,0c1.5,0,3,0,4.4,0.4c3.3,0.9,5,3.2,5,6.6c-0.1,3.4-1.9,5.6-5.2,6.4
	c-1.3,0.3-2.7,0.4-4.1,0.4c-25.7,0-51.4,0-77.1,0c-1.2,0-2.5,0-3.7-0.3c-3.5-0.7-6-3.5-5.7-6.8c0.2-3.5,2.1-5.8,5.6-6.5
	c1.3-0.3,2.7-0.2,4.1-0.3C150.7,70.4,163.6,70.4,176.4,70.4z"/>
<path d="M176.1,125.2c-13.6,0-27.2,0-40.8,0c-4.2,0-7.1-2.9-7.1-6.6c-0.1-3.7,2.8-6.7,6.9-7c1.1-0.1,2.2,0,3.4,0
	c24.8,0,49.7,0,74.5,0c1.2,0,2.5,0,3.7,0c4.6,0.2,7.6,3,7.4,7.1c-0.1,4-2.9,6.5-7.5,6.5C203,125.3,189.5,125.2,176.1,125.2z"/>
<path d="M148.8,205.3c2.9-3.1,5.3-6,8-8.6c3.5-3.5,7.6-3.7,10.5-0.7c2.8,2.9,2.6,6.8-0.8,10.3c-2.6,2.7-5.3,5.2-8.5,8.3
	c3.1,2.9,5.9,5.3,8.5,8c3.5,3.5,3.7,7.7,0.7,10.6c-3,2.9-6.8,2.6-10.3-0.8c-2.6-2.6-5.1-5.5-8.2-8.9c-3.1,3.4-5.6,6.4-8.3,9.1
	c-3.4,3.4-7.4,3.4-10.3,0.5c-2.8-2.9-2.7-6.7,0.5-10c2.7-2.8,5.6-5.3,9.3-8.6c-3.4-3-6.2-5.3-8.9-8c-3.6-3.5-3.8-7.5-0.7-10.5
	c2.9-2.8,6.9-2.5,10.3,0.8C143.2,199.2,145.7,202,148.8,205.3z"/>
<path d="M139,268.5c-2.5-2.3-5.4-4.7-8-7.4c-3.5-3.4-3.7-7.3-0.9-10.3c2.9-3.1,7-2.9,10.5,0.6c2.7,2.6,5.1,5.5,8.2,8.8
	c3-3.3,5.4-6.1,8-8.8c3.5-3.5,7.6-3.7,10.5-0.7c2.8,2.9,2.6,6.8-0.8,10.3c-2.6,2.7-5.4,5.1-8.7,8.2c3.3,3,6.1,5.4,8.7,8.1
	c3.5,3.5,3.7,7.7,0.6,10.6c-3,2.8-6.8,2.6-10.3-0.9c-2.6-2.6-5-5.5-8.1-8.9c-3.1,3.4-5.5,6.2-8.2,8.9c-3.6,3.6-7.6,3.7-10.5,0.6
	c-2.8-3-2.5-6.7,0.9-10.3c2.4-2.5,4.9-5,7.4-7.5C138.4,269.8,138.5,269.5,139,268.5z"/>
<path d="M155.4,166.4c-6.5,0-13,0-19.5,0c-4.7,0-7.8-2.7-7.8-6.7c0-4,3.1-6.8,7.7-6.9c13.1,0,26.2,0,39.3,0c4.8,0,7.7,2.7,7.7,6.8
	c0,4.2-2.8,6.8-7.6,6.8C168.6,166.4,162,166.4,155.4,166.4z"/>
<path d="M306.8,216.8c-7.8,7.9-14.8,15-22,21.9c-1.7,1.6-4.6,3-6.8,2.8c-2-0.2-4.7-2.5-5.2-4.4c-0.6-2.1,0.2-5.4,1.6-7
	c5.7-6.3,11.9-12.1,17.9-18.1c1.3-1.3,2.8-2.5,4.5-4c-1.2-1.3-2.1-2.3-3-3.2c-6.3-6.4-12.8-12.7-19.1-19.1
	c-3.4-3.5-3.6-7.3-0.7-10.3c2.9-3,7-2.7,10.6,0.8c0.8,0.8,1.6,1.6,2.4,2.4c6.3,6.4,12.7,12.8,19.4,19.6c3.7-3.8,7.3-7.5,10.9-11.1
	c3.4-3.5,6.9-6.9,10.3-10.3c4-4,8-4.4,11.1-1.3c3,3.1,2.6,7-1.3,10.8c-6.2,6.2-12.4,12.4-18.5,18.5c-0.9,0.9-1.7,1.8-2.7,2.9
	c5.8,5.8,11.6,11.6,17.3,17.3c1.1,1.1,2.1,2.1,3.2,3.2c4.6,4.6,5.2,8.4,2,11.6c-3.3,3.4-7.1,2.8-11.9-2
	c-5.6-5.6-11.1-11.1-16.7-16.7C309,219.8,308.1,218.5,306.8,216.8z"/>
</svg>
