<?xml version="1.0" encoding="utf-8"?>
<!-- Generator: Adobe Illustrator 21.0.0, SVG Export Plug-In . SVG Version: 6.00 Build 0)  -->
<svg version="1.1" id="Layer_1" xmlns="http://www.w3.org/2000/svg" xmlns:xlink="http://www.w3.org/1999/xlink" x="0px" y="0px"
	 viewBox="0 0 400 400" style="enable-background:new 0 0 400 400;" xml:space="preserve">
<path d="M392,330.5c0,1.7,0,3.5,0,5.2c-5.4,10.3-13,11.5-21.3,3.2c-17-17-34.1-34.1-51.1-51.1c-0.9-1-1.5-2.3-2-3.1
	c-5.3,3.1-9.5,5.8-14,7.9c-2.4,1.2-3.1,2.5-3.1,5.1c0.1,18,0.2,36,0,53.9c-0.2,17.7-12,33.2-28.8,38.4c-2.4,0.7-4.8,1.3-7.1,2
	c-73.5,0-147,0-220.5,0c-0.6-0.2-1.1-0.5-1.7-0.7c-16.2-3.2-26.9-12.7-32.4-28.2c-0.8-2.3-1.3-4.7-2-7.1C8,252,8,148,8,44
	c0.2-0.7,0.6-1.4,0.7-2.1c2.1-11.3,7.8-20.6,17.6-26.7C31.6,12,38.1,10.4,44,8c57.7,0,115.5,0,173.2,0c2.1,1.5,4.4,2.8,6.2,4.6
	c24.2,24.1,48.3,48.2,72.4,72.3c3.2,3.2,4.7,6.8,4.7,11.4c-0.1,16.5,0,33-0.1,49.5c0,2.5,0.6,3.9,3.1,5.1
	c43.3,20.9,57.9,75.2,31,115.1c-0.7,1-1.3,2-2.3,3.5c1.2,1,2.4,1.7,3.3,2.7c16.8,16.8,33.6,33.5,50.3,50.4
	C388.3,324.9,390,327.8,392,330.5z M277.9,300.2c-48,4.1-83.5-31.3-86.9-71c-1.9-21.7,3.8-41.2,17.9-57.8
	c18-21.2,41.3-30.1,68.8-28.2c0-12.7,0-25.1,0-37.7c-20.8,0-41.2,0-61.7,0c-8.5,0-13-4.4-13-12.9c0-19.2,0-38.5,0-57.7
	c0-1.3,0-2.7,0-4.4c-1.8,0-3.3,0-4.8,0c-48.7,0-97.5,0-146.2,0c-14.2,0-21.5,7.3-21.5,21.4c0,98.7,0,197.5,0,296.2
	c0,14.1,7.3,21.4,21.6,21.4c68.1,0,136.2,0,204.3,0c1.2,0,2.5,0,3.7,0c8.1-0.4,15-6,17.1-13.9c0.3-1,0.6-2,0.6-2.9
	C277.9,335.3,277.9,317.9,277.9,300.2z M325.5,221.8c0.1-31.1-24.9-56.2-56.1-56.3c-31-0.1-56.2,25-56.3,56.1
	c-0.1,30.9,25,56.2,55.7,56.3C300.3,278.1,325.5,253.1,325.5,221.8z M225.8,47.3c0,12,0,23.8,0,35.4c12,0,23.7,0,35.3,0
	C249.3,70.9,237.6,59.2,225.8,47.3z"/>
<path d="M128,128c21,0,42,0,62.9,0c8.9,0,14.6,8.2,11,15.8c-2.2,4.7-6.1,6.7-11.2,6.7c-22.7,0-45.4,0-68.2,0
	c-19.2,0-38.5,0.1-57.7,0c-9.2,0-14.7-9-10.4-16.7c2.4-4.2,6.2-5.8,11-5.8C86.3,128,107.2,128,128,128z"/>
<path d="M112.8,195.5c-16,0-32,0.1-47.9,0c-8.7,0-14.3-8.1-10.9-15.7c2-4.4,5.5-6.8,10.4-6.8c32.5,0,64.9-0.1,97.4,0
	c6.4,0,11.2,5,11.3,11.1c0,6.3-4.9,11.3-11.5,11.3C145.3,195.6,129,195.5,112.8,195.5z"/>
<path d="M113.4,218c15.6,0,31.2,0,46.8,0c7.6,0,12.7,4.5,12.8,11.2c0,6.7-5.1,11.3-12.6,11.3c-31.6,0-63.2,0-94.7,0
	c-7.5,0-12.7-4.7-12.6-11.4c0.1-6.5,5.1-11.1,12.4-11.1C81.4,218,97.4,218,113.4,218z"/>
<path d="M113.1,285.5c-15.7,0-31.5,0-47.2,0c-7.6,0-12.8-4.5-12.8-11.1C52.9,267.6,58.1,263,66,263c31.6,0,63.2,0,94.7,0
	c9,0,14.8,7.9,11.3,15.6c-2.1,4.7-5.9,6.9-11.1,6.9C145,285.5,129,285.5,113.1,285.5z"/>
</svg>
