<?xml version="1.0" encoding="utf-8"?>
<!-- Generator: Adobe Illustrator 21.0.0, SVG Export Plug-In . SVG Version: 6.00 Build 0)  -->
<svg version="1.1" id="Layer_1" xmlns="http://www.w3.org/2000/svg" xmlns:xlink="http://www.w3.org/1999/xlink" x="0px" y="0px"
	 viewBox="0 0 200 200" style="enable-background:new 0 0 200 200;" xml:space="preserve">
<style type="text/css">
	.st0{fill:#FFFFFF;}
</style>
<g>
	<path class="st0" d="M-26.9,164.2c-62.5,0-125,0-187.5,0c0-62.5,0-125,0-187.6c62.5,0,124.9,0,187.5,0
		C-26.9,39.1-26.9,101.7-26.9,164.2z M-92,111.1c0.7,1,1.3,2.2,2.2,3.2c14.8,14.9,29.6,29.7,44.5,44.5c0.9,0.9,1.9,1.9,2.9,2.7
		c5.1,3.9,12,1.8,14.2-4.2c1.6-4.4-0.2-7.7-3.2-10.7c-15.2-15.2-30.3-30.3-45.5-45.5c-0.9-0.9-1.8-1.9-2.6-2.8
		c28-38.2,14.6-83.6-13.3-105.1c-28.8-22.3-71-20.5-97.2,4.5c-27.2,26-31.1,67.1-10.1,97.7C-181.9,121.9-135,142.5-92,111.1z"/>
	<path d="M128.6,140.6c-43,31.4-89.9,10.9-108.2-15.8c-21-30.6-17.1-71.7,10.1-97.7c26.2-25,68.4-26.8,97.2-4.5
		c27.9,21.6,41.3,67,13.3,105.1c0.8,0.9,1.7,1.9,2.6,2.8c15.2,15.2,30.3,30.3,45.5,45.5c3,3,4.9,6.3,3.2,10.7
		c-2.2,6-9.2,8.1-14.2,4.2c-1-0.8-2-1.8-2.9-2.7c-14.8-14.8-29.7-29.6-44.5-44.5C129.9,142.8,129.3,141.6,128.6,140.6z M84.1,25.5
		c-29-1.5-57.3,20.7-58.8,54.2c-1.3,30.8,22.8,57.3,54.6,58.4c29.7,1.1,57-21.9,58.2-54.4C139.3,53,115.3,26.6,84.1,25.5z"/>
	<path class="st0" d="M-136.4-4.1c31.1,1.2,55.1,27.5,54,58.2c-1.2,32.5-28.5,55.5-58.2,54.4c-31.7-1.1-55.9-27.7-54.6-58.4
		C-193.7,16.7-165.4-5.5-136.4-4.1z"/>
</g>
</svg>
