<?xml version="1.0" encoding="utf-8"?>
<!-- Generator: Adobe Illustrator 21.0.0, SVG Export Plug-In . SVG Version: 6.00 Build 0)  -->
<svg version="1.1" id="Layer_1" xmlns="http://www.w3.org/2000/svg" xmlns:xlink="http://www.w3.org/1999/xlink" x="0px" y="0px"
	 viewBox="0 0 200 200" style="enable-background:new 0 0 200 200;" xml:space="preserve">
<style type="text/css">
	.st0{fill:#FFFFFF;}
</style>
<g>
	<g>
		<path d="M5.2,78c0.3-1,0.6-2,1-2.9c2.7-6.7,8-9.5,14.9-10.4c14.4-1.9,28.7-4.1,43-6.2c1.6-0.2,2.3-1.3,2.9-2.6
			c6.6-13.4,13.2-26.9,19.9-40.3c2.2-4.4,5.6-7.4,10.3-8.6c7.3-1.8,14.4,1.5,17.9,8.6c6.4,12.9,12.8,25.7,19,38.6
			c1.4,3,3.3,4.2,6.5,4.6c14.4,1.9,28.8,4,43.2,6.2c6.1,0.9,10.2,4.6,12.2,10.5c0.3,0.8,0.5,1.5,0.8,2.3c0,1.7,0,3.3,0,5
			c-1.1,4.3-3.6,7.7-6.9,10.8c-10.2,9.8-20.3,19.7-30.5,29.6c-1.1,1.1-1.6,2.2-1.3,3.8c2.6,15,5.2,30.1,7.7,45.1
			c0.4,2.2,0.2,4.7-0.4,6.9c-2.8,9.7-13.3,13.9-22.5,9.1c-13.2-6.9-26.4-13.8-39.6-20.8c-1.7-0.9-3-0.9-4.6,0
			c-2.1,1.3-4.4,2.3-6.6,3.5c-11.1,5.8-22.2,11.7-33.4,17.5c-5.7,3-11.4,2.6-16.6-1.2c-5.1-3.8-7-9.1-6-15.3
			c2.5-14.6,5-29.3,7.6-43.9c0.4-2.1,0-3.6-1.6-5.1c-9.8-9.4-19.4-18.9-29.1-28.3C9.4,91.3,6.3,87.9,5.2,83
			C5.2,81.3,5.2,79.7,5.2,78z M49.1,174.6c0,1.9,1.4,2.9,3.1,2.3c0.6-0.2,1.1-0.5,1.7-0.8c12.9-6.8,25.8-13.5,38.7-20.3
			c5.7-3.1,11.2-3,17,0.1c13,7,26.1,13.8,39.2,20.6c0.9,0.4,2.3,0.7,3,0.2c0.7-0.4,1.1-1.9,0.9-2.8c-2.4-14.6-4.9-29.1-7.5-43.7
			c-1.2-6.5,0.4-11.8,5.2-16.3c10.6-10.2,21.1-20.5,31.6-30.8c0.7-0.7,1.6-2.2,1.3-2.9c-0.3-0.9-1.7-1.7-2.8-1.9
			c-13.7-2.1-27.3-4.3-41-5.9c-8.5-1-14-4.7-17.6-12.6c-5.7-12.4-12-24.6-18.1-36.8c-0.6-1.3-1-2.9-2.8-2.9c-2,0-2.3,1.7-2.9,3
			C91.7,35.9,85.3,48.9,79,61.8c-2.9,5.9-7.4,9.1-13.9,10c-14.5,2-29,4.1-43.5,6.3c-1.1,0.2-2.5,0.9-2.9,1.8
			c-0.3,0.7,0.5,2.2,1.3,2.9c2.9,3,6,5.9,9,8.9c7.7,7.5,15.3,15,23,22.4c4.3,4.2,5.9,9.2,4.9,15.1c-1.8,10.8-3.7,21.5-5.6,32.2
			C50.6,165.9,49.9,170.3,49.1,174.6z"/>
		<path class="st0" d="M-218.1,98.6c1.1,4.9,4.3,8.3,7.8,11.7c9.8,9.4,19.4,18.9,29.1,28.3c1.6,1.5,2,3,1.6,5.1
			c-2.6,14.6-5.1,29.2-7.6,43.9c-1.1,6.3,0.9,11.5,6,15.3c5.2,3.9,10.9,4.2,16.6,1.2c11.2-5.8,22.2-11.7,33.4-17.5
			c2.2-1.2,4.5-2.2,6.6-3.5c1.6-1,3-0.9,4.6,0c13.2,7,26.4,13.9,39.6,20.8c9.2,4.8,19.7,0.6,22.5-9.1c0.6-2.2,0.8-4.7,0.4-6.9
			c-2.4-15.1-5-30.1-7.7-45.1c-0.3-1.6,0.2-2.7,1.3-3.8c10.2-9.9,20.3-19.8,30.5-29.6c3.2-3.1,5.7-6.5,6.9-10.8c0,36,0,71.9,0,107.9
			c-63.9,0-127.8,0-191.7,0C-218.1,170.5-218.1,134.5-218.1,98.6z"/>
		<path class="st0" d="M-174.1,190.2c0.7-4.3,1.5-8.7,2.2-13.1c1.9-10.7,3.7-21.5,5.6-32.2c1-5.9-0.6-10.9-4.9-15.1
			c-7.7-7.4-15.3-15-23-22.4c-3-2.9-6.1-5.8-9-8.9c-0.7-0.7-1.6-2.2-1.3-2.9c0.4-0.9,1.8-1.7,2.9-1.8c14.5-2.2,29-4.3,43.5-6.3
			c6.5-0.9,11.1-4.1,13.9-10c6.3-13,12.7-25.9,19.1-38.8c0.6-1.3,1-3.1,2.9-3c1.8,0,2.2,1.7,2.8,2.9c6.1,12.2,12.4,24.4,18.1,36.8
			c3.6,7.9,9.1,11.6,17.6,12.6c13.7,1.6,27.4,3.8,41,5.9c1.1,0.2,2.5,1,2.8,1.9c0.3,0.7-0.6,2.2-1.3,2.9
			c-10.5,10.3-21,20.6-31.6,30.8c-4.8,4.6-6.3,9.9-5.2,16.3c2.6,14.5,5.1,29.1,7.5,43.7c0.2,0.9-0.3,2.4-0.9,2.8
			c-0.7,0.4-2.1,0.2-3-0.2c-13.1-6.8-26.2-13.6-39.2-20.6c-5.7-3.1-11.2-3.1-17-0.1c-12.8,6.9-25.8,13.6-38.7,20.3
			c-0.5,0.3-1.1,0.6-1.7,0.8C-172.7,193.1-174.1,192.1-174.1,190.2z"/>
	</g>
</g>
</svg>
