<?xml version="1.0" encoding="utf-8"?>
<!-- Generator: Adobe Illustrator 21.0.0, SVG Export Plug-In . SVG Version: 6.00 Build 0)  -->
<svg version="1.1" id="Layer_1" xmlns="http://www.w3.org/2000/svg" xmlns:xlink="http://www.w3.org/1999/xlink" x="0px" y="0px"
	 viewBox="0 0 400 400" style="enable-background:new 0 0 400 400;" xml:space="preserve">
<g>
	<path d="M355.2,23.8c2,0,4,0,6,0c5,2.9,5.7,4.3,4.7,10c-0.5,2.7-0.8,5.5-2,8c-2.4,5.3-5.4,10.3-8.2,15.8c0.8,1.3,2,3.1,3,5
		c7.7,14.5,15.5,29,23.1,43.7c5.4,10.5,4.7,21.6,1.1,32.4c-3.3,10.1-10.2,16.7-20.8,18.9c-11.5,2.3-21.8-0.1-30.5-8.4
		c-4.1-3.9-8.5-7.5-14.4-8.7c0.9,7.8,1.9,15.2,2.5,22.6c1.2,17.5,1.2,35-4.7,51.8c-1.5,4.3-0.7,7.5,2.5,10.8
		c12.3,12.6,22.4,26.8,30.5,42.4c1.6,3.1,3.1,6.2,4.8,9.5c1.3-0.6,2.4-1.2,3.5-1.7c11.1-4.9,24.5-1.3,31.2,8.8
		c2.1,3.2,3.2,7,4.7,10.5c0,2.7,0,5.5,0,8.2c-2.2,9.2-8.2,15.9-15.6,21.2c-9.9,7.1-19.8,14.4-30.6,20.1c-35.2,18.8-73.5,26.9-113,30
		c-7.9,0.6-15.9,1-23.9,1.5c-6,0-12,0-18,0c-1.4-0.2-2.7-0.4-4.1-0.5c-25.9-0.7-51.5-3.7-76.7-10c-28.1-7-54.7-17.5-78.3-34.6
		c-10.1-7.3-20.5-14.5-23.9-27.7c0-2.7,0-5.5,0-8.2c0.2-0.4,0.5-0.9,0.6-1.3c5.7-20.9,28.7-27.1,43.9-11.9c1.4,1.4,3,2.7,4.7,4.3
		c7.3-16.3,16.5-30.7,27.8-43.9c1.8-2.1,2.2-4.5,0.7-7c-1.5-2.4-3.1-4.7-4.7-7c-3.5,2.6-6.6,5.2-10.1,7.4
		c-9.8,6.1-20.7,6.6-31.8,5.5C26.6,240,15.5,235.9,8,224.7c0-1.5,0-3,0-4.5c1.7-1.4,3.1-3.3,5.1-4.1c17.2-7.3,23.4-22,16.1-39.1
		c-4.2-9.8-6-19.8-4.6-30.3c1.8-13.6,6.5-25.6,18.7-33.5c7.4-4.8,15.6-6.4,24.3-6.1c17.7,0.6,30.6,8.7,38.3,24.8
		c0.5,1.1,1.1,2.2,1.1,2.3c8.6-0.5,16.5-1.3,24.4-1.4c23.6-0.2,47.2-0.1,70.8-0.1c10.8,0,11-0.4,12.8-11c3.7-21.6,10.1-42.2,22-60.8
		c10.3-16,23.9-28.2,42.5-33.6c6.3-1.8,12.9-2.5,19.4-3.6c2,0,4,0,6,0c6.1,1.4,12.4,2.6,18.4,4.4c3.2,1,5.9,1.1,9.2,0.2
		C340.1,26.5,347.7,25.3,355.2,23.8z M331.6,132.7c0.9-0.9,1.8-1.6,2.6-2.4c9.4-9.4,18.7-18.8,28.2-28c2.1-2,2.1-3.4,0.7-5.7
		c-6.9-11.9-13.6-23.8-20.5-35.7c-2.6-4.5-2.3-6.4,1-10.4c3.1-3.9,5.8-8.2,8.7-12.3c-0.3-0.4-0.6-0.8-1-1.2
		c-4.7,1.1-9.4,2.1-14.1,3.2c-3.2,0.8-5.7,2.5-8,5.1c-9,10.2-19.9,17-34,17.2c-6.2,0.1-11.5,2.8-15.4,7.4c-3.2,3.7-6.5,7.8-8.4,12.3
		c-3.6,8.5-6.4,17.3-9.1,26.1c-2.7,9-5.2,18-10.5,25.9c-5.1,7.6-12,11.8-21.4,11.5c-3.6-0.1-7.2,0-11.2,0c0,1.8,0,3.1,0,4.5
		c0,6.7,0.1,13.5,0,20.2c-0.3,19.3-12.1,34.2-30.1,38.4c-2.6,0.6-5.4,0.9-8.1,1.3c0,12.2,0,24.3,0,36.8c7.7-1.2,15.1-2.4,22.5-3.6
		c14.5-2.4,29-5.3,43.6-7.1c11.4-1.4,22.9-1.3,34.4-1.8c5.5-0.2,10.5,1.6,14.1,5.7c7.6,8.9,15.4,17.8,22,27.4
		c5.6,8.1,9.7,17.3,14.7,26.4c3.2-2.2,6.6-4.7,10-7.1c-0.5-1.1-0.8-1.9-1.1-2.7c-8.2-18.7-19.5-35.4-33.7-50.1
		c-6.3-6.5-7.4-13.7-5.1-22.4c2.3-8.7,4-17.8,4.6-26.8c1.1-16.3-0.9-32.4-4.1-48.4c-1.4-7,1-9.9,8.1-9.8
		C318.5,126.5,325.2,129,331.6,132.7z M320.3,300.1c-7.7-19.5-18.9-36.5-33.7-51c-1.4-1.3-4-1.8-6.1-1.9c-3.6-0.1-7.2,0.8-10.8,0.7
		c-19.6-0.4-38.8,2.1-57.9,6.4c-25,5.7-50.4,7.3-75.9,6.2c-11-3.9-17.9,1.5-24.3,9.8c-8.3,10.8-15.7,22.1-20.7,34.9
		C149.2,332.2,262.9,331.8,320.3,300.1z M200.7,363.2c22.2-0.1,44.9-1.7,67.3-5.7c27.6-5,54-13.2,78.5-27.3
		c10.7-6.1,20.7-13.1,29.1-22.2c5-5.4,4.8-13-0.3-17.9c-5-4.9-12.8-5.1-17.9,0c-14,13.8-30.9,22.8-49,29.7
		c-31.3,12-63.9,16.6-97.2,17.5c-33.4,0.9-66.4-1.6-98.7-10.7c-26.1-7.3-50.6-17.7-70.5-37c-4.8-4.7-12.2-4.3-17,0.2
		c-5,4.6-5.7,11.8-1.3,17.3c2.1,2.6,4.6,4.9,7.2,7.1c17.7,15.2,38.3,25.3,60.2,32.7C126.4,359,163,363.1,200.7,363.2z M129.6,146.1
		c-16.5-3.3-33.8,5.6-40.5,21.2c-8.8,20.6-6.7,40.2,5.9,58.6c6.3,9.3,6,17.3-1.1,26c-3.5,4.2-6.9,8.6-10,13.1
		c-6.3,9-11.6,18.5-15.9,29c3.7,2.1,7.3,4.1,11,6.1c0.7-1.4,1.2-2.4,1.6-3.4c7.2-16.7,17.4-31.4,30.3-44.2c4.7-4.6,10.1-6.3,16.6-6
		c11.8,0.6,23.7,0.8,35.5,1c1.6,0,3.1-0.2,4.9-0.3c0-6.5,0-12.6,0-18.7c0-6.2,0-12.4,0-18.6c-3.2-0.5-5.9-0.8-8.6-1.4
		c-17.5-4.2-29.4-19-29.8-37.1C129.4,163,129.6,154.5,129.6,146.1z M25.9,224.3c9.2,4.9,18.8,5.2,28.4,3.8c8-1.1,14.8-4.7,19.1-11.8
		c0.7-1.2,0.9-3,0.7-4.4c-0.8-4.9-2.4-9.8-2.7-14.7c-1.2-21.2,3.7-40.2,21.2-54.1c2.5-2,2.7-3.6,1.5-6.2
		c-5.5-12.3-18.4-18.9-33.3-16.7c-9.8,1.4-16.9,6.6-20.5,15.9c-4.6,11.8-4.8,23.5,0.4,35.3c7.6,17.3,5.7,39.6-13.9,51.9
		C26.6,223.5,26.4,223.8,25.9,224.3z M142.6,145.8c0,9.7-0.7,19.2,0.2,28.6c1.2,12.2,10.1,20.7,22.3,22.1c6,0.7,12.3,0.7,18.3,0
		c13.1-1.4,22-11,22.8-24.1c0.3-5.3,0.1-10.7,0.2-16.1c0-3.4,0-6.9,0-10.5C184.8,145.8,163.8,145.8,142.6,145.8z M317.2,39.5
		c-2.1-0.6-3.6-1.1-5.2-1.4c-23.4-4-42.5,3.7-57.7,21.4c-11,12.8-17.6,28-22,44.2c-2.6,9.4-4.4,19-6.5,28.6
		c9.2,1.3,12.8-0.1,16.3-6.9c2.4-4.5,4.2-9.3,5.8-14.1c2.9-8.9,4.9-18.1,8.3-26.8c7.7-19.8,19.5-34.8,43.2-35.5
		C306.1,48.8,311.9,45,317.2,39.5z M342.5,141.3c6.5,5.8,18.9,5.7,24.7-0.3c5.6-5.9,7.4-20.9,3.4-27.8
		C361.2,122.5,351.8,131.9,342.5,141.3z"/>
	<path d="M340.8,87.9c0.1,3.5-2.8,6.4-6.4,6.4c-3.5,0-6.2-2.5-6.3-6c-0.2-3.6,2.5-6.6,6.1-6.7C337.6,81.5,340.7,84.4,340.8,87.9z"/>
</g>
</svg>
