<?xml version="1.0" encoding="utf-8"?>
<!-- Generator: Adobe Illustrator 21.0.0, SVG Export Plug-In . SVG Version: 6.00 Build 0)  -->
<svg version="1.1" id="Layer_1" xmlns="http://www.w3.org/2000/svg" xmlns:xlink="http://www.w3.org/1999/xlink" x="0px" y="0px"
	 viewBox="0 0 200 200" style="enable-background:new 0 0 200 200;" xml:space="preserve">
<path d="M5,122.3c4.9,0,9.7,0,14.8,0c0,0.8,0,1.5,0,2.2c0,16,0,32,0,48c0,5.8,2.9,8.7,8.7,8.7c47.7,0,95.3,0,143,0
	c5.8,0,8.7-2.9,8.7-8.7c0-15.9,0-31.9,0-47.8c0-0.7,0-1.5,0-2.4c5,0,9.9,0,14.8,0c0,18.1,0,36.1,0,54.2c-0.1,0.3-0.3,0.5-0.3,0.8
	c-1.2,7.1-4.9,12.5-11.2,15.8c-2.9,1.5-6.4,2-9.6,3c-49.2,0-98.5,0-147.7,0c-0.5-0.1-0.9-0.2-1.4-0.3c-6.7-0.9-12.2-4-15.8-9.7
	c-1.8-2.9-2.6-6.4-3.9-9.6C5,158.4,5,140.4,5,122.3z"/>
<path d="M64.8,62.9c-3.7-3.7-7.1-7.1-10.4-10.4c15.1-15.1,30.4-30.4,45.6-45.6c15.1,15.1,30.4,30.3,45.5,45.5
	c-3.2,3.2-6.7,6.7-10.1,10.2c-9.1-9.1-18.3-18.4-28-28c0,38.9,0,77.3,0,115.7c-5,0-9.8,0-14.8,0c0-38.3,0-76.7,0-115.3
	C83.2,44.5,73.9,53.7,64.8,62.9z"/>
</svg>
