<?xml version="1.0" encoding="utf-8"?>
<!-- Generator: Adobe Illustrator 21.0.0, SVG Export Plug-In . SVG Version: 6.00 Build 0)  -->
<svg version="1.1" id="Layer_1" xmlns="http://www.w3.org/2000/svg" xmlns:xlink="http://www.w3.org/1999/xlink" x="0px" y="0px"
	 viewBox="0 0 200 200" style="enable-background:new 0 0 200 200;" xml:space="preserve">
<g>
	<path d="M20.6,151.9c0.9-4.9,1.5-9.8,2.7-14.6c3.4-13.5,10.2-25.1,19.9-35.1c3.3-3.4,7.7-3.8,10.8-0.8c3.1,3,3,7.3-0.4,10.8
		c-11.7,12.1-17.8,26.7-18.6,43.5c-0.2,3.4,1.1,6,3.5,8.1c4.3,3.9,9.5,6.3,14.9,8.2c17.8,6.3,36.3,7.9,55.1,7
		c13-0.6,25.8-2.4,37.9-7.1c4.4-1.7,8.6-4,12.6-6.4c4.6-2.7,6.4-6.8,5.8-12.4c-1.5-16-7.5-29.9-18.8-41.4c-1.8-1.8-2.9-3.9-2.6-6.4
		c0.4-2.9,2-5,4.8-6c2.9-1,5.5-0.2,7.6,1.9c7.6,7.6,13.5,16.3,17.6,26.2c2.9,7.2,4.8,14.7,5.5,22.5c0.1,0.6,0.2,1.2,0.4,1.7
		c0,2.9,0,5.7,0,8.6c-1.6,7.4-5.9,12.8-12,17c-2.8,1.9-5.7,3.6-8.7,5.1c-11.7,5.6-24.2,8.3-36.9,10c-4.4,0.5-8.8,0.9-13.2,1.4
		c-5.7,0-11.4,0-17.1,0c-3.1-0.3-6.1-0.6-9.2-0.9c-13.4-1.4-26.6-3.9-38.9-9.5c-10.5-4.7-19.9-10.7-22.8-23
		C20.6,157.6,20.6,154.7,20.6,151.9z"/>
	<path d="M105,6.2c3.6,0.8,7.2,1.5,10.7,2.6c21.9,6.9,36.3,28.3,34.8,51.2c-1.5,23.2-18.7,42.5-41.5,46.5
		c-32.2,5.7-61.1-19.8-59.4-52.6c1.2-24,20.2-44.4,44-47.2c0.5-0.1,1-0.3,1.5-0.4C98.3,6.2,101.7,6.2,105,6.2z M63.9,56.6
		c0,19.9,16.1,36.2,35.9,36.2c20.2,0,36.3-16.1,36.3-36.2c0-19.9-16.3-36-36.3-36C80.1,20.6,63.9,36.9,63.9,56.6z"/>
</g>
</svg>
