<?xml version="1.0" encoding="utf-8"?>
<!-- Generator: Adobe Illustrator 21.0.0, SVG Export Plug-In . SVG Version: 6.00 Build 0)  -->
<svg version="1.1" id="Layer_1" xmlns="http://www.w3.org/2000/svg" xmlns:xlink="http://www.w3.org/1999/xlink" x="0px" y="0px"
	 viewBox="0 0 400 400" style="enable-background:new 0 0 400 400;" xml:space="preserve">
<path d="M211.9,390.5c-7.4,0-14.9,0-22.3,0c-2.6-0.3-5.1-0.6-7.7-0.9c-38.1-4.2-72.2-18.1-101.7-42.5
	c-36.5-30.2-59.3-68.6-67.8-115.4c-1.3-7-2-14.2-2.9-21.2c0-7.4,0-14.9,0-22.3c0.2-1.1,0.6-2.1,0.6-3.2c1.6-23.1,7.2-45.3,17.5-65.9
	C56.8,60.5,103.5,25,167.6,12.5c7.3-1.4,14.7-2,22-3c7.7,0,15.4,0,23.1,0c2.4,0.3,4.8,0.6,7.3,0.9c37.7,4.1,71.5,17.7,100.8,41.9
	c36.2,29.8,58.6,67.9,66.9,114.2c1.3,7.2,2,14.4,3,21.6c0,7.4,0,14.9,0,22.3c-0.2,1.1-0.6,2.1-0.6,3.2c-1.9,26.6-8.9,51.7-21.6,75
	c-29.5,53.8-74.2,87.2-134.7,98.8C226.4,388.9,219.1,389.5,211.9,390.5z M212.2,210.5c0,23,0,45.6,0,68.4c18.7,0,37.1,0,55.6-0.1
	c1,0,2.4-1.5,2.8-2.6c6.2-15.3,10.3-31.2,12.6-47.6c0.8-5.9,1.2-11.9,1.8-18.1C260.4,210.5,236.4,210.5,212.2,210.5z M116.8,210.6
	c-0.1,0.7-0.1,1.1-0.1,1.6c1.4,22.3,6.2,43.8,14.4,64.6c0.9,2.3,2.4,2,4.1,2c17,0,34,0,51,0c1.1,0,2.1-0.1,3.1-0.2
	c0-22.9,0-45.5,0-68.1C165,210.6,141,210.6,116.8,210.6z M284.6,187.9c0-0.8,0-1.4,0-2c-1.7-21.1-6.1-41.6-13.8-61.4
	c-1-2.6-2.1-3.6-5-3.5c-16.7,0.2-33.5,0.1-50.2,0.1c-1.2,0-2.4,0.1-3.5,0.2c0,22.4,0,44.5,0,66.6
	C236.5,187.9,260.5,187.9,284.6,187.9z M189.4,121.1c-18.8,0-37.2,0-55.7,0.1c-0.9,0-2.2,1.4-2.6,2.4c-2.4,6.6-4.8,13.3-6.8,20
	c-4.3,14.4-6.6,29.1-7.6,44.3c24.3,0,48.4,0,72.6,0C189.4,165.7,189.4,143.7,189.4,121.1z M32.4,210.5c0,0.8,0,1.3,0,1.8
	c1.6,22.8,7.8,44.3,18.5,64.5c0.6,1.1,2.7,1.9,4.1,1.9c16.5,0.1,33,0.1,49.5,0.1c1,0,2.1-0.1,3.5-0.3c-8.1-22.2-12.4-44.9-13.7-68.1
	C73.5,210.5,53.2,210.5,32.4,210.5z M94.4,187.9c1.2-23,5.8-45.1,13.5-66.9c-18.7,0-36.7,0-54.8,0.1c-1,0-2.5,1.4-3,2.5
	c-6.3,12-11,24.6-13.8,37.9c-1.8,8.6-3,17.4-4.5,26.4C53.2,187.9,73.6,187.9,94.4,187.9z M293.5,278.9c18.1,0,35.4,0,52.8-0.1
	c1.1,0,2.7-1.4,3.3-2.5c7.5-14.3,12.6-29.5,15.5-45.5c1.2-6.6,1.9-13.3,2.8-20.2c-20.7,0-40.6,0-60.8,0
	C306,233.9,301.5,256.5,293.5,278.9z M307.7,187.8c19.8,0,39.8,0,59.9,0c0-0.8,0-1.3,0-1.8c-1.6-22.1-7.7-43-17.7-62.8
	c-1-2-2.3-2.1-4.1-2.1c-16.3,0-32.7,0-49,0c-0.9,0-1.8,0.1-2.6,0.2c2.9,11.1,6.3,21.8,8.5,32.8C304.9,165.1,306,176.4,307.7,187.8z
	 M65.8,98.8c16.5,0,32.1-0.1,47.7,0.1c3,0,4.6-0.9,5.9-3.6c10.7-21,24.5-39.8,41.3-56.4c0.7-0.7,1.3-1.5,2.5-2.8
	C123.1,45.8,91.1,66.4,65.8,98.8z M66.4,301.2c25.2,33.8,63.8,56,96.3,62.2c-0.4-0.5-0.7-0.9-1-1.2c-17.6-17.2-32-36.8-43.2-58.7
	c-0.6-1.1-2.6-2.1-4-2.1c-10.9-0.2-21.8-0.1-32.7-0.1C76.9,301.2,72,301.2,66.4,301.2z M238.5,36.2c0.7,1,0.9,1.3,1.2,1.5
	c17.6,17.2,32.1,36.7,43.1,58.8c1.1,2.1,2.5,2.3,4.4,2.3c14.6,0,29.3,0,43.9,0c0.9,0,1.8-0.2,3.2-0.3
	C309.4,66.6,277.9,45.9,238.5,36.2z M239.1,363.6c38.8-9.7,70.1-30.5,94.9-62.5c-16.6,0-32.3-0.1-48,0.1c-1.1,0-2.6,1.5-3.4,2.6
	c-7.6,11.7-14.5,23.9-22.6,35.2C253.8,347.7,246.2,355.3,239.1,363.6z M189.4,43.1c-19,16-34.2,34.2-46.3,55.5c15.8,0,31,0,46.3,0
	C189.4,80.1,189.4,62,189.4,43.1z M258.5,98.6C246.1,77.2,231,59,212.1,43.2c0,18.8,0,37.1,0,55.5C227.5,98.6,242.6,98.6,258.5,98.6
	z M189.3,356.8c0-18.9,0-37.2,0-55.4c-15.4,0-30.5,0-46.2,0C155.3,322.8,170.5,340.9,189.3,356.8z M212.1,356.9
	c19-16.1,34.1-34.3,46.2-55.5c-15.8,0-31,0-46.2,0C212.1,319.9,212.1,338,212.1,356.9z"/>
</svg>
